/* XPM */
static char * p_left_0_xpm[] = {
"40 60 36 1",
" 	c None",
".	c #330F1E",
"+	c #AD3E50",
"@	c #E1534A",
"#	c #6C3B4F",
"$	c #282828",
"%	c #332041",
"&	c #D17F6B",
"*	c #EB9F7F",
"=	c #B8614E",
"-	c #000000",
";	c #F29546",
">	c #010101",
",	c #F1C28F",
"'	c #945848",
")	c #F2F2F0",
"!	c #4884D4",
"~	c #BD8B6E",
"{	c #020202",
"]	c #425BBD",
"^	c #030202",
"/	c #64468D",
"(	c #50576B",
"_	c #AE57A4",
":	c #2E3740",
"<	c #8D87A2",
"[	c #BCB7C5",
"}	c #EA71BD",
"|	c #BDBDBD",
"1	c #80472B",
"2	c #9C9C9C",
"3	c #502814",
"4	c #42CAFD",
"5	c #007DC7",
"6	c #243F72",
"7	c #B9B5C3",
"                                        ",
"             ..............             ",
"            .++@@@@@@@@@@++.            ",
"            .++@@@@@@@@@@++.            ",
"           .+@@@@@@@@@@@@@@+.           ",
"           ..++@@@@@@@@@@++..           ",
"           .+..++++++++++..+.           ",
"           .+++..........+++.           ",
"       .....@++++++++++++++@.....       ",
"     ..+++#.@@@@+@@@@+@@@++@.####..     ",
"     ..+++#.@@@@+@@@@+@@@++@.####..     ",
"    .+@@+++..++++@@@@@@++++..######.    ",
"  ..+@@+####...##++++++##...#####++#..  ",
"  ..+@@+++###..............#####++++..  ",
"  ..#@@@@@++####........#####++++++#..  ",
"    .#@@@@@@@@@@+@+@@+@+@++@+@++++#.    ",
"     .#+@@@@@@@@@@@@@@@@@@@@@+@@+#.     ",
"     .#+@@@@@@@@@@@@@@@@@@@@@+@@+#.     ",
"     $..###+@@@@@@@@@@@@@@@@+###..      ",
"     %$$.....####++++++####.....%       ",
"      %%&&***..............%=$$$%       ",
"       -&&***%%%%%%%%%;;$$$%$$$$%       ",
"        >>,*')))'&&%%==--%%=$$%%%       ",
"        >>,*')))'&&%%==--%%=$$%%%       ",
"        >>,*!!!)'&*%%=#~~--$%$%%{       ",
"        >>&&]]])'&*%%=#''~~-%%%%        ",
"        --&&''''&**##=%''~~-%%{{        ",
"        --'**********=%''~~-%^          ",
"        --,**********%**&--%^           ",
"          -''&&******,&&%%%{            ",
"          -''&&******,&&%%%{            ",
"           >&*****&&&&&^-               ",
"            {--&&&&~~~{/-               ",
"               ->&&&&///-               ",
"               -/////--/-               ",
"             --(/_-::(<-/--             ",
"             --[/}-::<<-/--             ",
"             --[/}-::<<-/--             ",
"             --[/}-<<<<-/--             ",
"             --</}-<<<[-/--             ",
"             --:/}-<<<[-_--             ",
"             --</}-<<<[-_--             ",
"             --:/}-(([[-_--             ",
"             --:/}-(([[-_--             ",
"             --</}}-----_--             ",
"             --//_}--+#-_//-            ",
"             |||//_--@+-_//-            ",
"             ||12//__--__//-            ",
"             22233/////////-            ",
"                -444445-----            ",
"                -444445-----            ",
"                -544445-                ",
"                 -44456-                ",
"                 -55566-                ",
"                 -)))))-                ",
"                 -)7777-                ",
"                  -----                 ",
"                  -----                 ",
"                                        ",
"                                        "};
