/* XPM */
static char * p_up_1_xpm[] = {
"40 60 22 1",
" 	c None",
".	c #330F1E",
"+	c #AD3E50",
"@	c #E1534A",
"#	c #6C3B4F",
"$	c #000000",
"%	c #D17F6B",
"&	c #332041",
"*	c #B8614E",
"=	c #F29546",
"-	c #64468D",
";	c #BCB7C5",
">	c #AE57A4",
",	c #8D87A2",
"'	c #EA71BD",
")	c #2E3740",
"!	c #50576B",
"~	c #243F72",
"{	c #42CAFD",
"]	c #007DC7",
"^	c #B9B5C3",
"/	c #F2F2F0",
"                                        ",
"                                        ",
"                                        ",
"                                        ",
"             ..............             ",
"            .++@@@@@@@@@@++.            ",
"           .+@@@@@@@@@@@@@@+.           ",
"           ..++@@@@@@@@@@++..           ",
"           .+..++++++++++..+.           ",
"           .+++..........+++.           ",
"           .+++..........+++.           ",
"       .....@++++++++++++++@.....       ",
"     ..+++#.@@@@+@@@@+@@@++@.####..     ",
"    .+@@+++..++++@@@@@@++++..######.    ",
"  ..+@@+####...##++++++##...#####++#..  ",
"  ..+@@+++###..............#####++++..  ",
"  ..#@@@@@++####........#####++++++#..  ",
"  ..#@@@@@++####........#####++++++#..  ",
"    .#@@@@@@@@@@+@+@@+@+@++@+@++++#.    ",
"     .#+@@@@@@@@@@@@@@@@@@@@@+@@+#.     ",
"      ..###+@@@@@@@@@@@@@@@@+###..      ",
"     $%$.....####++++++####.....$%$     ",
"     $%$&&#**..............**#&&$%$     ",
"     $%$&&#**..............**#&&$%$     ",
"     $%$&&##***====##====****#&&$%$     ",
"     $%$&&&*###**==##===****#&&&$%$     ",
"      $%&&&#***##**####*****#&&&%$      ",
"       $&&&#*******##*******#&&&$       ",
"          &&#***==*##*==***#&&          ",
"          $&&####**##**####&&$          ",
"          $&&####**##**####&&$          ",
"           $&&&&###&&###&&&&$           ",
"            $$$&&&&&&&&&&$$$            ",
"               $%%%%%%%%$               ",
"             $$----------$$             ",
"            $;;->------>-$$             ",
"           $;,,->'>>>>'-);;$            ",
"           $;,,->'>>>>'-);;$            ",
"           $;,,-''>''>'-);;$            ",
"          $;,!!-'''''''-),,;$           ",
"          $!!-->'''''''-),,;$           ",
"        $$+$$--''''''''>$,,,;$          ",
"        $$@+#$$'''''''''$!!$$$          ",
"        $$@+#$$'''''''''$!!$$$          ",
"        $$@+$>>'''''''''>$$+++$$        ",
"          $$->>'''''''''>$$#+@$$        ",
"           $->>>''''''''>--$+@$$        ",
"           $--->>'>''>'>>>>-$$          ",
"           $----->>>>>>-----$           ",
"           $$~~{--------{~~$$           ",
"           $$~~{--------{~~$$           ",
"            $~~{{]$$$$]]]~~$            ",
"            $~~{{]$  $~~~~~$            ",
"             $$]]]$   $^^^^$            ",
"             $$///$    $$$$             ",
"             $$^/^$                     ",
"               $$$                      ",
"               $$$                      ",
"                                        ",
"                                        "};
