/* XPM */
static char * e_down_1_xpm[] = {
"40 60 8 1",
" 	c #197A53",
".	c #000000",
"+	c #B9B5C3",
"@	c #F2F2F0",
"#	c #76747D",
"$	c #57546F",
"%	c #101E29",
"&	c #2E3740",
"                                        ",
"                ........                ",
"                ........                ",
"           .....++++++++.....           ",
"        ...@@+++@@@@@@@@+++@@...        ",
"      ..##++++@@@@@@@@@@@@++++##..      ",
"      ..##++++@@@@@@@@@@@@++++##..      ",
"     .##+++++@@@@@@@@@@@@@@+++++##.     ",
"     .##+++++@@@@@@@@@@@@@@+++++##.     ",
"   ..#++++++++@@@@@@@@@@@@++++++++#..   ",
"   ..#++++++++@@@@@@@@@@@@++++++++#..   ",
"   ..#++++++++++@@@@@@@@++++++++++#..   ",
"   ..#++++++++++++++++++++++++++++#..   ",
"   ..#++++++++++++++++++++++++++++#..   ",
"   ..#++++++++++++++++++++++++++++#..   ",
"   ..#++++++++++++++++++++++++++++#..   ",
"   ..#++++++++++++++++++++++++++++#..   ",
"   ..#++++++++++++++++++++++++++++#..   ",
"   ..#++++++++++++++++++++++++++++#..   ",
"   ..$##++++++++++++++++++++++++##$..   ",
"   ..$####$%%%$$++++++++$$%%%$####$..   ",
"   ..$++##%&&&&&########&&&&&%##++$..   ",
"   ..$++##%&&&&&########&&&&&%##++$..   ",
"   ..#++##%&&&&&###&&###&&&&&%##++.     ",
"     .##++#&&&####&&&&####&&&#++##.     ",
"      ..##+###++##&&&&##++###+##..      ",
"      ..##+###++##&&&&##++###+##..      ",
"      ..##@+++++++####+++++++@##..      ",
"        ..###+++++&++&+++++###..        ",
"          ...###&&&&&&&&###...          ",
"          ...###&&&&&&&&###...          ",
"             ...++&++&++...             ",
"           ..#++........++#..           ",
"          .&&&&&##&$$&##&&&..           ",
"          .&&&&&##&$$&##&&&..           ",
"        ..+&&#++++#&&#++++&++.          ",
"        ..#&&&&&&&&$$&&&&&&##.          ",
"      ..++&++&##+++&&+++&&$&&+..        ",
"      ..++&++&##+++&&+++&&$&&+..        ",
"      ..##&##&&&&&&$$&&&&&#&&#..        ",
"     .++&&+$$&##+++&&+++##&++&++..      ",
"     .++++$..&&&&&&##&&&&&.@@&##..      ",
"     .++++$..&&&&&&##&&&&&.@@&##..      ",
"     .##$$.###++++&$$&+++++..+&&##.     ",
"      .....&&&&&&&#&&#&&&&&..$++++.     ",
"          .$$#++##&&&&##++#...$$##.     ",
"          .$$#++##&&&&##++#...$$##.     ",
"          .##++++++$$++++++##.....      ",
"          .$$###&&&&&&&&###$$.          ",
"          .&&&&&##$&&$++&&&&&.          ",
"          .&&&&&##$&&$++&&&&&.          ",
"          .++#&&++....##++&##.          ",
"          .++#&&++.  .$$##&##.          ",
"           ..#&&##.   ..$$&$$.          ",
"           ..#&&##.   ..$$&$$.          ",
"           ..&++&&.     .....           ",
"           ..+++++.                     ",
"             .....                      ",
"             .....                      ",
"                                        "};
