/* XPM */
static char * e_left_1_xpm[] = {
"40 60 12 1",
" 	c None",
".	c #000000",
"+	c #76747D",
"@	c #F2F2F0",
"#	c #B9B5C3",
"$	c #010101",
"%	c #57546F",
"&	c #101E29",
"*	c #020202",
"=	c #2E3740",
"-	c #030202",
";	c #020201",
"                                        ",
"             ..............             ",
"             ..............             ",
"          ...+@@########@@+...          ",
"        ..+########@@@@@#####+..        ",
"      ..++########@@@@@@@@@@@#++..      ",
"      ..++########@@@@@@@@@@@#++..      ",
"     .++###########@@@@@@@@@@@##++.     ",
"     .++#############@@@@@@@@@@@++.     ",
"   ..+################@@@@@@@@@@@@+..   ",
"   ..+################@@@@@@@@@@@@+..   ",
"   ..+##################@@@@@@@@##+..   ",
"   ..+####################@@@@@@##+..   ",
"   ..+############################+..   ",
"   ..+############################+..   ",
"   ..+#######################@@@##+..   ",
"   ..+############################+..   ",
"   ..+##########################+++..   ",
"   ..+##########################+++..   ",
"     $++##%&&&%%+++++###########+++**   ",
"     $++++====&&+++###########+++++**   ",
"     =++++====&&++############++++-     ",
"     =++++====&&++############++++-     ",
"     ===+++===++#############+++++*     ",
"     ===++#+++#############+++++--      ",
"     .++##=###@@@@########++++--        ",
"     .++##=###@@@@########++++--        ",
"      ..=====###########+++..*          ",
"        $$=##########+++--;             ",
"          *..#+++++++=**%%.             ",
"          *..#+++++++=**%%.             ",
"             .$$++===+%%==.             ",
"             .##==#=======.             ",
"           ..%==++=##+##++%..           ",
"           ..%==++=##+##++%..           ",
"           ..=####....++%%+..           ",
"           ..%==..+==+..===..           ",
"           ..=##..#==#..##%..           ",
"           ..=##..#==#..##%..           ",
"           ..%==..#==#..===...          ",
"           ..=##..#==#..##+..%..        ",
"           ..%..++=++.##===..=%%..      ",
"           ..%..++=++.##===..=%%..      ",
"           ..=..===##.==++%..%++..      ",
"           ...++##=..%+++++.....        ",
"             .####.=====%%%..           ",
"             .####.=====%%%..           ",
"             .....=+++##===..           ",
"             .##+++==+++##=..           ",
"           ..+..##+++===++.             ",
"           ..+..##+++===++.             ",
"           ..+==..#++===++#..           ",
"          .++===++...#++=====.          ",
"          .+++==+++...##==+##.          ",
"          .+++==+++...##==+##.          ",
"           ..+++...   ..==###.          ",
"             ...        .....           ",
"                                        ",
"                                        ",
"                                        "};
