/* XPM */
static char * e_up_2_xpm[] = {
"40 60 7 1",
" 	c None",
".	c #000000",
"+	c #B9B5C3",
"@	c #F2F2F0",
"#	c #76747D",
"$	c #57546F",
"%	c #2E3740",
"                                        ",
"                ........                ",
"                ........                ",
"           .....++++++++.....           ",
"        ...@@+++@@@@@@@@+++@@...        ",
"      ..##++++@@@@@@@@@@@@++++##..      ",
"      ..##++++@@@@@@@@@@@@++++##..      ",
"     .##+++++@@@@@@@@@@@@@@+++++##.     ",
"     .##+++++@@@@@@@@@@@@@@+++++##.     ",
"   ..#++++++++@@@@@@@@@@@@++++++++#..   ",
"   ..#++++++++@@@@@@@@@@@@++++++++#..   ",
"   ..#++++++++++@@@@@@@@++++++++++#..   ",
"   ..#++++++++++++++++++++++++++++#..   ",
"   ..#++++++++++++++++++++++++++++#..   ",
"   ..#++++++++++++++++++++++++++++#..   ",
"   ..#++++++++++++++++++++++++++++#..   ",
"   ..#++++++++++++++++++++++++++++#..   ",
"   ..#++++++++++++++++++++++++++++#..   ",
"   ..#++++++++++++++++++++++++++++#..   ",
"   ..$++++++++++++++++++++++++++++$..   ",
"   ..$++++++++++++++++++++++++++++$..   ",
"   ..$++++++++++++++++++++++++++++$..   ",
"   ..$++++++++++++++++++++++++++++$..   ",
"   ..$++++++++++++++++++++++++++++$..   ",
"     .##++++++++++++++++++++++++##.     ",
"      ..##++++++++++++++++++++##..      ",
"      ..##++++++++++++++++++++##..      ",
"      ..###++++++++++++++++++###..      ",
"        ..####################..        ",
"          ...###........###...          ",
"          ...###........###...          ",
"             ...$$%%%%$$...             ",
"           ..#%%##+%%+##%%#..           ",
"           ..+%%%%%$$%%%%%%++.          ",
"           ..+%%%%%$$%%%%%%++.          ",
"          .++%++++#%%#++++#%%+..        ",
"          .##%%%%%%$$%%%%%%%%#..        ",
"        ..+%%$%%+++%%+++##%++%++..      ",
"        ..+%%$%%+++%%+++##%++%++..      ",
"        ..#%%#%%%%%$$%%%%%%##%##..      ",
"      ..++%++%##+++%%+++##%$$+%%++.     ",
"      ..##%@@.%%%%%##%%%%%%..$++++.     ",
"      ..##%@@.%%%%%##%%%%%%..$++++.     ",
"     .##%%+..+++++%$$%++++###.$$##.     ",
"     .++++$..%%%%%#%%#%%%%%%%.....      ",
"     .##$$...#++##%%%%##++#$$.          ",
"     .##$$...#++##%%%%##++#$$.          ",
"      .....##++++++$$++++++##.          ",
"          .$$###%%%%%%%%###$$.          ",
"          .%%%%%++$%%$##%%%%%.          ",
"          .%%%%%++$%%$##%%%%%.          ",
"          .##%++##....++%%#++.          ",
"          .##%##$$.  .++%%#++.          ",
"          .$$%$$..   .##%%#..           ",
"          .$$%$$..   .##%%#..           ",
"           .....     .%%++%..           ",
"                     .+++++..           ",
"                      .....             ",
"                      .....             ",
"                                        "};
