/* XPM */
static char * p_down_2_xpm[] = {
"40 60 31 1",
" 	c #197A53",
".	c #330F1E",
"+	c #AD3E50",
"@	c #E1534A",
"#	c #6C3B4F",
"$	c #000000",
"%	c #332041",
"&	c #D17F6B",
"*	c #B8614E",
"=	c #F29546",
"-	c #EB9F7F",
";	c #945848",
">	c #F2F2F0",
",	c #4884D4",
"'	c #425BBD",
")	c #F1C28F",
"!	c #64468D",
"~	c #AE57A4",
"{	c #50576B",
"]	c #2E3740",
"^	c #BCB7C5",
"/	c #EA71BD",
"(	c #8D87A2",
"_	c #BDBDBD",
":	c #80472B",
"<	c #9C9C9C",
"[	c #502814",
"}	c #243F72",
"|	c #42CAFD",
"1	c #007DC7",
"2	c #B9B5C3",
"                                        ",
"             ..............             ",
"            .++@@@@@@@@@@++.            ",
"            .++@@@@@@@@@@++.            ",
"           .+@@@@@@@@@@@@@@+.           ",
"           ..++@@@@@@@@@@++..           ",
"           .+..++++++++++..+.           ",
"           .+++..........+++.           ",
"           .@++++++++++++++@.           ",
"          ..@@@@+@@@@+@@@++@..          ",
"          ..@@@@+@@@@+@@@++@..          ",
"       ......++++@@@@@@++++......       ",
"     ..+++#.....#++++++#.....#+++..     ",
"    .+@@+++#................#+++@@+.    ",
"  ..+@@+++++####........#####++++@@+..  ",
"  ..+@@+@@+++++##########+++++@@+@@+..  ",
"  ..+@@@@@@@@@@@+@+@@+@+@++@+@@@@@@+..  ",
"  ..+@@@@@@@@@@@+@+@@+@+@++@+@@@@@@+..  ",
"    .+@@@@@@@@@@@@@@@@@@@@@@@@@@@@+.    ",
"     .++@@@@@@@@@@@@@@@@@@@@@@@@++.     ",
"      ..##++@@@@@@@@@@@@@@@@++##..      ",
"      $%.....##++++++++++##.....%$      ",
"     $&%##*=%..............%=*##%&$     ",
"     $&%##*=%..............%=*##%&$     ",
"     $&%##**%%%%%------%%%%%**##%&$     ",
"     $&%%%**;>>>;------;>>>;**%%%&$     ",
"     $&%%%#*;>>,,-&&&&-,,>>;*#%%%&$     ",
"      $&%%%*;>>''&&&&&&''>>;*%%%&$      ",
"       $%%%*&;;;;&&&&&&;;;;&*%%%$       ",
"          %%-------;;-------%%          ",
"          %%-------;;-------%%          ",
"          %%)--------------)%%          ",
"           %&&&--&;;;;&--&&&%           ",
"            $$$&)------)&$$$            ",
"               $$&&&&&&$$               ",
"             $$!~$$$$$$~!$$             ",
"             $$!~!{]]{!~!^^$            ",
"             $$!~!{]]{!~!^^$            ",
"            $^^]!!^]]^!/!((^$           ",
"            $^^]!!(]](!/!((^$           ",
"           $^((]!!{]]{!/!{{(^$          ",
"           $^((]!!]]]]!/~!!{{$          ",
"          $^((($~!{(({!//!!$$+$$        ",
"          $^((($~!{(({!//!!$$+$$        ",
"          $$${{$/!]]]]!//$$#+@$$        ",
"        $$+++$$~/!{(({!//~~$+@$$        ",
"        $$@+#$$//!]]]]!////!$$          ",
"        $$@+$!!/~!____!~///!$           ",
"          $$!~~~!_::::<!~~~!$           ",
"           $!!!![[<<<<[[!!!!$           ",
"           $!!!![[<<<<[[!!!!$           ",
"           $$}}||1}}}}|||}}$$           ",
"            $}}111$$$$1||}}$            ",
"            $}}}}}$  $1||}}$            ",
"            $2222$   $111$$             ",
"             $$$$    $>>>$$             ",
"                     $2>2$$             ",
"                     $2>2$$             ",
"                      $$$               ",
"                                        "};
