/* XPM */
static char * p_left_2_xpm[] = {
"40 60 36 1",
" 	c #197A53",
".	c #330F1E",
"+	c #AD3E50",
"@	c #E1534A",
"#	c #6C3B4F",
"$	c #282828",
"%	c #332041",
"&	c #D17F6B",
"*	c #EB9F7F",
"=	c #B8614E",
"-	c #000000",
";	c #F29546",
">	c #010101",
",	c #F1C28F",
"'	c #945848",
")	c #F2F2F0",
"!	c #4884D4",
"~	c #BD8B6E",
"{	c #020202",
"]	c #425BBD",
"^	c #030202",
"/	c #64468D",
"(	c #AE57A4",
"_	c #50576B",
":	c #BCB7C5",
"<	c #EA71BD",
"[	c #8D87A2",
"}	c #2E3740",
"|	c #BDBDBD",
"1	c #80472B",
"2	c #9C9C9C",
"3	c #502814",
"4	c #007DC7",
"5	c #42CAFD",
"6	c #243F72",
"7	c #B9B5C3",
"                                        ",
"                                        ",
"             ..............             ",
"             ..............             ",
"            .++@@@@@@@@@@++.            ",
"           .+@@@@@@@@@@@@@@+.           ",
"           ..++@@@@@@@@@@++..           ",
"           .+..++++++++++..+.           ",
"           .+++..........+++.           ",
"       .....@++++++++++++++@.....       ",
"       .....@++++++++++++++@.....       ",
"     ..+++#.@@@@+@@@@+@@@++@.####..     ",
"    .+@@+++..++++@@@@@@++++..######.    ",
"  ..+@@+####...##++++++##...#####++#..  ",
"  ..+@@+++###..............#####++++..  ",
"  ..#@@@@@++####........#####++++++#..  ",
"    .#@@@@@@@@@@+@+@@+@+@++@+@++++#.    ",
"    .#@@@@@@@@@@+@+@@+@+@++@+@++++#.    ",
"     .#+@@@@@@@@@@@@@@@@@@@@@+@@+#.     ",
"     $..###+@@@@@@@@@@@@@@@@+###..      ",
"     %$$.....####++++++####.....%       ",
"      %%&&***..............%=$$$%       ",
"       -&&***%%%%%%%%%;;$$$%$$$$%       ",
"       -&&***%%%%%%%%%;;$$$%$$$$%       ",
"        >>,*')))'&&%%==--%%=$$%%%       ",
"        >>,*!!!)'&*%%=#~~--$%$%%{       ",
"        >>&&]]])'&*%%=#''~~-%%%%        ",
"        --&&''''&**##=%''~~-%%{{        ",
"        --'**********=%''~~-%^          ",
"        --,**********%**&--%^           ",
"        --,**********%**&--%^           ",
"          -''&&******,&&%%%{            ",
"           >&*****&&&&&^-               ",
"            {--&&&&~~~{/-               ",
"               ->&&&&///-               ",
"               -/////((--               ",
"             --_/(((((-__--             ",
"             --_/(((((-__--             ",
"             --:/<(((-_[[--             ",
"             --:/<(//-[[[[[-            ",
"             --[/<<//-_[[::-            ",
"            ---}/<<((/-[[::-            ",
"           -@--[/<<((/-_[[[:-           ",
"           -@--[/<<((/-_[[[:-           ",
"          -@+--}/<<(((/-_:::-           ",
"          -+#--[/<<<<((/-----           ",
"           ----//(<<<<(/-++#-           ",
"               |//(<<<(/-@@+-           ",
"               |1//((<<(/---            ",
"               223///((((//-            ",
"               223///((((//-            ",
"             --4555////////-            ",
"             --4445554--6--             ",
"            -))))4544-66777-            ",
"            -))7744---67777-            ",
"             --)7--   -7777-            ",
"               --      ----             ",
"               --      ----             ",
"                                        ",
"                                        "};
