/* XPM */
static char * p_right_0_xpm[] = {
"40 60 36 1",
" 	c #197A53",
".	c #330F1E",
"+	c #AD3E50",
"@	c #E1534A",
"#	c #6C3B4F",
"$	c #282828",
"%	c #332041",
"&	c #B8614E",
"*	c #EB9F7F",
"=	c #D17F6B",
"-	c #F29546",
";	c #000000",
">	c #945848",
",	c #F2F2F0",
"'	c #F1C28F",
")	c #010101",
"!	c #020202",
"~	c #BD8B6E",
"{	c #4884D4",
"]	c #425BBD",
"^	c #030202",
"/	c #64468D",
"(	c #8D87A2",
"_	c #50576B",
":	c #2E3740",
"<	c #AE57A4",
"[	c #EA71BD",
"}	c #BCB7C5",
"|	c #BDBDBD",
"1	c #9C9C9C",
"2	c #80472B",
"3	c #502814",
"4	c #007DC7",
"5	c #42CAFD",
"6	c #243F72",
"7	c #B9B5C3",
"                                        ",
"             ..............             ",
"            .++@@@@@@@@@@++.            ",
"            .++@@@@@@@@@@++.            ",
"           .+@@@@@@@@@@@@@@+.           ",
"           ..++@@@@@@@@@@++..           ",
"           .+..++++++++++..+.           ",
"           .+++..........+++.           ",
"       .....@++++++++++++++@.....       ",
"     ..####.@++@@@+@@@@+@@@@.#+++..     ",
"     ..####.@++@@@+@@@@+@@@@.#+++..     ",
"    .######..++++@@@@@@++++..+++@@+.    ",
"  ..#++#####...##++++++##...####+@@+..  ",
"  ..++++#####..............###+++@@+..  ",
"  ..#++++++#####........####++@@@@@#..  ",
"    .#++++@+@++@+@+@@+@+@@@@@@@@@@#.    ",
"     .#+@@+@@@@@@@@@@@@@@@@@@@@@+#.     ",
"     .#+@@+@@@@@@@@@@@@@@@@@@@@@+#.     ",
"      ..###+@@@@@@@@@@@@@@@@+###..$     ",
"       %.....####++++++####.....$$%     ",
"       %$$$&%..............***==%%      ",
"       %$$$$%$$$--%%%%%%%%%***==;       ",
"       %%%$$&%%;;&&%%==>,,,>*'))        ",
"       %%%$$&%%;;&&%%==>,,,>*'))        ",
"       !%%$%$;;~~#&%%*=>,{{{*'))        ",
"        %%%%;~~>>#&%%*=>,]]]==))        ",
"        !!%%;~~>>%&##**=>>>>==;;        ",
"          ^%;~~>>%&**********>;;        ",
"           ^%;;=**%**********';;        ",
"            !%%%=='******==>>;          ",
"            !%%%=='******==>>;          ",
"               ;^=====*****=)           ",
"               ;/!~~~====;;!            ",
"               ;///====);               ",
"               ;/;;/////;               ",
"             ;;/;(_::;</_;;             ",
"             ;;/;((::;[/};;             ",
"             ;;/;((::;[/};;             ",
"             ;;/;((((;[/};;             ",
"             ;;/;}(((;[/(;;             ",
"             ;;<;}(((;[/:;;             ",
"             ;;<;}(((;[/(;;             ",
"             ;;<;}}__;[/:;;             ",
"             ;;<;}}__;[/:;;             ",
"             ;;<;;;;;[[/(;;             ",
"            ;//<;#+;;[<//;;             ",
"            ;//<;+@;;<//|||             ",
"            ;//<<;;<<//12||             ",
"            ;/////////33111             ",
"            ;;;;;455555;                ",
"            ;;;;;455555;                ",
"                ;455554;                ",
"                ;64555;                 ",
"                ;66444;                 ",
"                ;,,,,,;                 ",
"                ;7777,;                 ",
"                 ;;;;;                  ",
"                 ;;;;;                  ",
"                                        ",
"                                        "};
