/* XPM */
static char * coin2_xpm[] = {
"60 60 237 2",
"  	c #197A53",
". 	c #F6D400",
"+ 	c #F7D500",
"@ 	c #F6CA00",
"# 	c #F5C500",
"$ 	c #F4C400",
"% 	c #F8D600",
"& 	c #FFDF00",
"* 	c #FFE934",
"= 	c #FFF097",
"- 	c #FFF243",
"; 	c #FFF200",
"> 	c #FFEF00",
", 	c #FFE800",
"' 	c #FFD700",
") 	c #FFCE00",
"! 	c #F7C600",
"~ 	c #F4D200",
"{ 	c #FFDE00",
"] 	c #FFEF77",
"^ 	c #FFFDCE",
"/ 	c #FFF5CF",
"( 	c #FFEB79",
"_ 	c #F9DF00",
": 	c #F4D800",
"< 	c #F4D400",
"[ 	c #F9DB00",
"} 	c #FFDB00",
"| 	c #FFDD00",
"1 	c #FAC900",
"2 	c #E4B400",
"3 	c #F1CF00",
"4 	c #FFE500",
"5 	c #FFF466",
"6 	c #FFECAD",
"7 	c #F0D357",
"8 	c #D6B600",
"9 	c #CCAB00",
"0 	c #D5B400",
"a 	c #DBBA00",
"b 	c #BD9500",
"c 	c #C79900",
"d 	c #EBBC00",
"e 	c #FFCF00",
"f 	c #FECD00",
"g 	c #ECBC00",
"h 	c #E8B800",
"i 	c #ECCA00",
"j 	c #FEEA00",
"k 	c #FFEE00",
"l 	c #F5D400",
"m 	c #CFAF00",
"n 	c #F5DB0C",
"o 	c #FFF190",
"p 	c #FFF939",
"q 	c #FFFE00",
"r 	c #FFFB00",
"s 	c #FFF300",
"t 	c #FFE000",
"u 	c #F1C200",
"v 	c #CC9E00",
"w 	c #BD8F00",
"x 	c #E9BA00",
"y 	c #EBBB00",
"z 	c #E1B700",
"A 	c #F8E000",
"B 	c #FFE900",
"C 	c #EAC900",
"D 	c #CEAE00",
"E 	c #F6D829",
"F 	c #FFF6AE",
"G 	c #FFFFDB",
"H 	c #FFFE95",
"I 	c #FFE400",
"J 	c #E5C600",
"K 	c #E0C400",
"L 	c #F6C700",
"M 	c #F2C200",
"N 	c #B98B00",
"O 	c #C59600",
"P 	c #DDAD00",
"Q 	c #E3B300",
"R 	c #DBAB00",
"S 	c #E5BB00",
"T 	c #D0B000",
"U 	c #FDE562",
"V 	c #FFFCAC",
"W 	c #FFFF89",
"X 	c #FFF500",
"Y 	c #FFE200",
"Z 	c #EDD400",
"` 	c #EDD100",
" .	c #C79B00",
"..	c #F0C000",
"+.	c #FCCB00",
"@.	c #B78900",
"#.	c #C49600",
"$.	c #D8A800",
"%.	c #E9B900",
"&.	c #D0A000",
"*.	c #E2B200",
"=.	c #F1C400",
"-.	c #F0C500",
";.	c #FDE400",
">.	c #FFFD00",
",.	c #EED34E",
"'.	c #FBDF00",
").	c #C29300",
"!.	c #AF8100",
"~.	c #CD9D00",
"{.	c #D9A900",
"].	c #D8A900",
"^.	c #DEAF00",
"/.	c #F5C700",
"(.	c #B38600",
"_.	c #EFD245",
":.	c #F7E1AF",
"<.	c #F6C600",
"[.	c #AA7C00",
"}.	c #D2A200",
"|.	c #D5A500",
"1.	c #CF9F00",
"2.	c #D6A600",
"3.	c #D4A600",
"4.	c #CFA100",
"5.	c #FFFA00",
"6.	c #F4D500",
"7.	c #EFDB00",
"8.	c #EEBE00",
"9.	c #EABA00",
"0.	c #B98A00",
"a.	c #B88A00",
"b.	c #CE9E00",
"c.	c #AC7E00",
"d.	c #F2D400",
"e.	c #FFFF00",
"f.	c #FFD900",
"g.	c #F3C800",
"h.	c #E9D500",
"i.	c #C79800",
"j.	c #E0B600",
"k.	c #EFBF00",
"l.	c #F3C200",
"m.	c #D5A600",
"n.	c #A87900",
"o.	c #CB9B00",
"p.	c #CA9B00",
"q.	c #C79700",
"r.	c #C69600",
"s.	c #B18400",
"t.	c #FFF000",
"u.	c #FFEC00",
"v.	c #F6C500",
"w.	c #DECA00",
"x.	c #CFA200",
"y.	c #EDD636",
"z.	c #EEBD00",
"A.	c #F3C300",
"B.	c #E5B500",
"C.	c #A97B00",
"D.	c #BA8B00",
"E.	c #C59700",
"F.	c #C39300",
"G.	c #BC8D00",
"H.	c #F9F300",
"I.	c #FFD600",
"J.	c #EFD79B",
"K.	c #B38500",
"L.	c #B08100",
"M.	c #C89900",
"N.	c #D1A100",
"O.	c #BF8F00",
"P.	c #BA8C00",
"Q.	c #ECDB00",
"R.	c #EFD700",
"S.	c #DFB000",
"T.	c #E7B700",
"U.	c #AF8000",
"V.	c #C39400",
"W.	c #C69700",
"X.	c #BF9000",
"Y.	c #B28400",
"Z.	c #B88900",
"`.	c #E6C600",
" +	c #F4C300",
".+	c #E9D300",
"++	c #E6B600",
"@+	c #DCAC00",
"#+	c #C19200",
"$+	c #CC9D00",
"%+	c #B48600",
"&+	c #DBAE00",
"*+	c #E8D200",
"=+	c #D7A800",
"-+	c #B68700",
";+	c #DEAE00",
">+	c #CFA000",
",+	c #A77900",
"'+	c #B28300",
")+	c #B38400",
"!+	c #D7A700",
"~+	c #DFAF00",
"{+	c #A67800",
"]+	c #B48500",
"^+	c #AD7F00",
"/+	c #B58700",
"(+	c #D3A400",
"_+	c #CB9C00",
":+	c #AE7F00",
"<+	c #B58600",
"[+	c #BE8F00",
"}+	c #A57700",
"|+	c #C49500",
"1+	c #CD9E00",
"2+	c #E4CE00",
"3+	c #E1B100",
"4+	c #D3A300",
"5+	c #D4A400",
"6+	c #C99A00",
"7+	c #E2C900",
"8+	c #D1A200",
"9+	c #BF9100",
"0+	c #AB7E00",
"a+	c #DCBD00",
"b+	c #C89A00",
"c+	c #C09100",
"d+	c #DBB000",
"e+	c #C39500",
"f+	c #A87B00",
"g+	c #AD7E00",
"h+	c #B78800",
"i+	c #B18300",
"j+	c #C29400",
"k+	c #AE8000",
"l+	c #B18200",
"m+	c #BD8E00",
"n+	c #BB8C00",
"                                                                                                                        ",
"                                                                                                                        ",
"                                                                                                                        ",
"                                                                                                                        ",
"                                                                                                                        ",
"                                                                                                                        ",
"                                                                                                                        ",
"                                                                                                                        ",
"                                                                                                                        ",
"                                                                                                                        ",
"                                                                                                                        ",
"                                                                                                                        ",
"                                                                                                                        ",
"                                                                                                                        ",
"                                                                                                                        ",
"                                                                                                                        ",
"                                                    . + + + + @ # $                                                     ",
"                                                % & * = - ; > , ' ) ) !                                                 ",
"                                            ~ { ] ^ / ( _ : < [ } | ' ) 1 2                                             ",
"                                          3 4 5 6 7 8 9 0 a a 0 b c d e f g h                                           ",
"                                        i j k l m a n o p q r s t u v w x h g y                                         ",
"                                      z A B C D E F G H ; I J K L ) ) M N O P y Q                                       ",
"                                    R S , C T U V W X Y | Z `  ...) ) ) +.@.#.$.%.&.                                    ",
"                                    *.=.-.D ;.q >.B | | ,.'...)...) ) ) +.%.!.~.{.{.                                    ",
"                                  ].^./.(.~ >.r Y | | _.:.) ..)...) ) ) <.g {.[.}.|.1.                                  ",
"                                  2.$.3.4.X 5.| | | 6.7.8.) ..)...) ) f 8.g 9.0.a.|.1.                                  ",
"                                1.b.2.c.d.e.f.) e g.h.i.j.) k.)...) ) l.g g g m.n.o.p.O                                 ",
"                                &.q.r.s.t.u.) ) v.w.x.m.y.) z.)...f A.g g g g B.C.D.p.E.                                ",
"                                1.F.G.w H.I.) ) ) ) ) ) J.) g ).y k.g g g g g 9.K.L.M.O                                 ",
"                                N.O.a.P.Q.A.+.) ) ) ) ) R.) 9.).S.g g g g g g T.K.U.V.W.                                ",
"                                N.X.Y.Z.`.g g k.A. + +M .+) %.).S.g g g g g ++@+Y.U.#+W.                                ",
"                                $+F.K.%+&+g g g g g g g *+) %.).S.g g g y *.P =+!.L.#+O                                 ",
"                                W.).-+C.|.B.g g g g g g *+) %.).S.g g ++;+P P >+,+'+#+E.                                ",
"                                O #.)+,+~.!+%.g g g g g *+) %.).S.T.~+P P P =+V.{+'+W.O                                 ",
"                                  p.]+^+/+N.!+h g g g g *+) B.).(+P P P P {._+Y.:+<+p.                                  ",
"                                  W.[+'+}+|+p.1+R Q Q Q 2+) 3+).4+P P @+5+p.|+}+'+X.W.                                  ",
"                                    M.)+U.C.6+p.p.$+(+].7+) ;+).8+$.4+_+p.6+C.!.K.M.                                    ",
"                                    E.9+'+c.0+6+p.p.p.p.a++.{.).V.p.p.p.b+0+c.'+c+O                                     ",
"                                      i.Z.'+c.C.|+p.p.p.d+2 1.G.V.p.p.e+f+g+'+a.i.                                      ",
"                                        M.h+'+!.}+i+V.p.O |+|+|+M.j+i+}+!.'+<+i.                                        ",
"                                          W.D.'+'+:+,+,+k+Y.Y.k+{+,+:+'+'+h+#.                                          ",
"                                            O ).-+'+'+'+l+U.U.l+'+'+'+]+c+O                                             ",
"                                                W.|+m+h+'+'+'+'+-+n+V.O                                                 ",
"                                                    |+O i.|+|+i.O |+                                                    ",
"                                                                                                                        ",
"                                                                                                                        ",
"                                                                                                                        ",
"                                                                                                                        ",
"                                                                                                                        ",
"                                                                                                                        ",
"                                                                                                                        ",
"                                                                                                                        ",
"                                                                                                                        ",
"                                                                                                                        ",
"                                                                                                                        ",
"                                                                                                                        ",
"                                                                                                                        ",
"                                                                                                                        ",
"                                                                                                                        ",
"                                                                                                                        "};
