/* XPM */
static char * exit_60_xpm[] = {
"60 60 304 2",
"  	c None",
". 	c #7D4937",
"+ 	c #723B28",
"@ 	c #723B29",
"# 	c #723C29",
"$ 	c #723C2A",
"% 	c #713D2B",
"& 	c #713E2D",
"* 	c #713F2D",
"= 	c #713E2C",
"- 	c #723A27",
"; 	c #FFECB8",
"> 	c #FFE8AA",
", 	c #FFE8A9",
"' 	c #FFE18F",
") 	c #FFD567",
"! 	c #FFC01B",
"~ 	c #FFC019",
"{ 	c #FFC327",
"] 	c #FFE296",
"^ 	c #FEEDC1",
"/ 	c #FFE6A4",
"( 	c #FFC221",
"_ 	c #FFBF17",
": 	c #FFF2CF",
"< 	c #CC7704",
"[ 	c #CC7703",
"} 	c #CC7705",
"| 	c #CB7706",
"1 	c #CB7808",
"2 	c #CB7809",
"3 	c #CB7707",
"4 	c #FFDB7D",
"5 	c #723A28",
"6 	c #FFF8E4",
"7 	c #BDBDBD",
"8 	c #C1C1C1",
"9 	c #CACACA",
"0 	c #D3D3D3",
"a 	c #D0D0D0",
"b 	c #C6C6C6",
"c 	c #BFBFBF",
"d 	c #BEBEBE",
"e 	c #C3C3C3",
"f 	c #CDCDCD",
"g 	c #D4D4D4",
"h 	c #D7D7D7",
"i 	c #D1D1D1",
"j 	c #C4C4C4",
"k 	c #FEE9B6",
"l 	c #FFF9EB",
"m 	c #D9D9D9",
"n 	c #DDDDDD",
"o 	c #E1E1E1",
"p 	c #E0E0E0",
"q 	c #DBDBDB",
"r 	c #D5D5D5",
"s 	c #CCCCCC",
"t 	c #C8C8C8",
"u 	c #D8D8D8",
"v 	c #DADADA",
"w 	c #C0C0C0",
"x 	c #FFEFC8",
"y 	c #FFFCF3",
"z 	c #D6D6D6",
"A 	c #C9C9C9",
"B 	c #FFF6DF",
"C 	c #FFFCF4",
"D 	c #FFF7E2",
"E 	c #FFFAED",
"F 	c #DCDCDC",
"G 	c #D2D2D2",
"H 	c #FFF1CE",
"I 	c #FFF7E0",
"J 	c #CECECE",
"K 	c #C2C2C2",
"L 	c #CBCBCB",
"M 	c #C5C5C5",
"N 	c #FFE7A9",
"O 	c #FFF3D1",
"P 	c #E2E2E2",
"Q 	c #CFCFCF",
"R 	c #FFDD82",
"S 	c #FFF1CC",
"T 	c #FFE7AA",
"U 	c #FFD873",
"V 	c #FFF7E3",
"W 	c #FEF1CC",
"X 	c #FEF0C9",
"Y 	c #FEEEC1",
"Z 	c #FEEAB5",
"` 	c #FEE8AC",
" .	c #FEE7A9",
"..	c #FEBE18",
"+.	c #FECA41",
"@.	c #FEDD84",
"#.	c #FEF3D4",
"$.	c #FFF5DB",
"%.	c #FFF5DC",
"&.	c #FEDA7B",
"*.	c #FECC47",
"=.	c #FEC01F",
"-.	c #FEBE17",
";.	c #CC7501",
">.	c #D08117",
",.	c #D99740",
"'.	c #D99842",
").	c #D7943A",
"!.	c #D08016",
"~.	c #CC7502",
"{.	c #CC7603",
"].	c #D18119",
"^.	c #D79338",
"/.	c #CC7602",
"(.	c #CB7401",
"_.	c #CB7502",
":.	c #D08118",
"<.	c #D89640",
"[.	c #D89843",
"}.	c #D7933A",
"|.	c #CF7E15",
"1.	c #CB7402",
"2.	c #855545",
"3.	c #FDEEC9",
"4.	c #FDEEC8",
"5.	c #FEF8E9",
"6.	c #FEF3D9",
"7.	c #FCE7B3",
"8.	c #855546",
"9.	c #D0821A",
"0.	c #D7953E",
"a.	c #D0821B",
"b.	c #C97406",
"c.	c #C97202",
"d.	c #CA7303",
"e.	c #CE7F19",
"f.	c #D79641",
"g.	c #D89642",
"h.	c #D6923B",
"i.	c #CE7D17",
"j.	c #CA7304",
"k.	c #C97203",
"l.	c #CA7203",
"m.	c #CA7202",
"n.	c #CF801D",
"o.	c #D79440",
"p.	c #CF801C",
"q.	c #C97304",
"r.	c #C97306",
"s.	c #0E0909",
"t.	c #060101",
"u.	c #C87003",
"v.	c #C77003",
"w.	c #CD8123",
"x.	c #C56E02",
"y.	c #C56D03",
"z.	c #C46E04",
"A.	c #090101",
"B.	c #C56E03",
"C.	c #723828",
"D.	c #C36C03",
"E.	c #723625",
"F.	c #D08C3D",
"G.	c #C26A04",
"H.	c #C16B05",
"I.	c #564848",
"J.	c #564141",
"K.	c #564E4E",
"L.	c #575757",
"M.	c #5B5656",
"N.	c #614E4E",
"O.	c #6B6868",
"P.	c #716666",
"Q.	c #756A6A",
"R.	c #0D0202",
"S.	c #858080",
"T.	c #817C7C",
"U.	c #7E7979",
"V.	c #7C7676",
"W.	c #7B7575",
"X.	c #776F6F",
"Y.	c #6F6D6D",
"Z.	c #615353",
"`.	c #D08D45",
" +	c #C26A03",
".+	c #723524",
"++	c #D69E62",
"@+	c #BC6405",
"#+	c #BB6507",
"$+	c #585757",
"%+	c #818181",
"&+	c #828181",
"*+	c #838080",
"=+	c #878585",
"-+	c #8B8A8A",
";+	c #8E8D8D",
">+	c #919191",
",+	c #939393",
"'+	c #7F7979",
")+	c #140303",
"!+	c #868282",
"~+	c #969696",
"{+	c #959595",
"]+	c #8F8E8E",
"^+	c #898787",
"/+	c #858282",
"(+	c #D2985D",
"_+	c #713323",
":+	c #D5A26E",
"<+	c #B76007",
"[+	c #B66109",
"}+	c #595050",
"|+	c #807E7E",
"1+	c #817D7D",
"2+	c #848282",
"3+	c #888686",
"4+	c #8C8B8B",
"5+	c #989898",
"6+	c #9B9B9B",
"7+	c #9A9A9A",
"8+	c #949494",
"9+	c #929292",
"0+	c #909090",
"a+	c #848181",
"b+	c #827E7E",
"c+	c #D29C67",
"d+	c #B75F07",
"e+	c #B75F06",
"f+	c #713023",
"g+	c #D29D6B",
"h+	c #B25B07",
"i+	c #B15C0B",
"j+	c #5A5353",
"k+	c #7F7B7B",
"l+	c #858383",
"m+	c #919090",
"n+	c #999999",
"o+	c #949393",
"p+	c #8D8C8C",
"q+	c #8A8989",
"r+	c #868484",
"s+	c #827F7F",
"t+	c #7F7A7A",
"u+	c #CB915A",
"v+	c #B15A07",
"w+	c #B25906",
"x+	c #712E22",
"y+	c #CC935F",
"z+	c #AF5809",
"A+	c #AE5B0F",
"B+	c #5A5959",
"C+	c #7F7E7E",
"D+	c #817E7E",
"E+	c #929191",
"F+	c #969595",
"G+	c #898888",
"H+	c #C4864F",
"I+	c #AF5709",
"J+	c #B05607",
"K+	c #712D21",
"L+	c #C48246",
"M+	c #AE5708",
"N+	c #AD5A0F",
"O+	c #5C4343",
"P+	c #8A8888",
"Q+	c #959494",
"R+	c #7E7A7A",
"S+	c #7E7878",
"T+	c #BF7D43",
"U+	c #AF5708",
"V+	c #AF5607",
"W+	c #712C20",
"X+	c #C07B3E",
"Y+	c #AE5507",
"Z+	c #AD570A",
"`+	c #D08716",
" @	c #D08715",
".@	c #D08817",
"+@	c #D38C1F",
"@@	c #D69733",
"#@	c #DAA147",
"$@	c #DEAA5A",
"%@	c #E0AF64",
"&@	c #E0B167",
"*@	c #E1B36B",
"=@	c #E2C5AA",
"-@	c #E2C6AB",
";@	c #E2C7AD",
">@	c #ECDAC8",
",@	c #F7EEE7",
"'@	c #F1E3D6",
")@	c #E4CAB1",
"!@	c #E1C3A8",
"~@	c #E0C3A7",
"{@	c #DFAE61",
"]@	c #DFAD5F",
"^@	c #BB7537",
"/@	c #BF7839",
"(@	c #AD5609",
"_@	c #AD570B",
":@	c #AE5608",
"<@	c #AE5506",
"[@	c #712E23",
"}@	c #230505",
"                                                                                                                        ",
"                                                                                                                        ",
"                                                                                                                        ",
"                                                                                                                        ",
"                                                                                                                        ",
"                                                                                                                        ",
"                                                                                                                        ",
"                                                                                                                        ",
"                                                                                                                        ",
"                                                                                                                        ",
"                                                                                                                        ",
"                  . + + + @ @ # $ $ $ $ $ $ $ $ $ $ $ $ $ $ $ $ $ $ $ % % & * * * * & & = $ $ + - - -                   ",
"                  ; > > > > > > > > > > > > > > > > > > > > > > , , ' ) ) ! ~ { { ] ^ ^ / ( ( _ _ _ -                   ",
"                  ; > > > > > > > > > > > > > > > > > > > > > > , , ' ) ) ! ~ { { ] ^ ^ / ( ( _ _ _ -                   ",
"                  : > > < [ [ [ [ [ < < < < < < < < < < < < < < } } } | | 1 2 1 1 3 } } } | | 4 _ _ 5                   ",
"                  6 > > 7 7 7 7 7 7 7 7 7 8 9 0 0 a b b c 7 7 7 d d d e e f g h h i 9 9 j 8 8 k _ _ +                   ",
"                  6 > > 7 7 7 7 7 7 7 7 7 8 9 0 0 a b b c 7 7 7 d d d e e f g h h i 9 9 j 8 8 k _ _ +                   ",
"                  l > > 7 h h h h h h m m n o p p q r r i s s t d d e f f u v u u 9 j j w d d x _ _ +                   ",
"                  y > > 7 h h h h h m n n o p q q z i i s t t d e e s h h v u A A j 8 8 d 7 7 B _ _ +                   ",
"                  y > > 7 h h h h h m n n o p q q z i i s t t d e e s h h v u A A j 8 8 d 7 7 B _ _ +                   ",
"                  C > > 7 h h h m m n o o p q z z i f f t d d e f f u m m u A j j 8 d d 7 7 7 D _ _ +                   ",
"                  E > > 7 h h u n n o o o F z G G f A A d e e s u u m h h A j 8 8 d 7 7 7 7 7 H _ _ +                   ",
"                  E > > 7 h h u n n o o o F z G G f A A d e e s u u m h h A j 8 8 d 7 7 7 7 7 H _ _ +                   ",
"                  I > > 7 u u n o o o F F h 0 J J A d d K L L h u u z A A M 8 d d 7 7 7 7 7 7 N _ _ +                   ",
"                  O > > c F F o P P n h h g Q 9 9 d w w 9 z z u z z A M M 8 d 7 7 7 7 7 7 7 7 R _ _ +                   ",
"                  O > > c F F o P P n h h g Q 9 9 d w w 9 z z u z z A M M 8 d 7 7 7 7 7 7 7 7 R _ _ +                   ",
"                  S T T b o o P n n u g g Q 9 d d 8 9 9 r u u z A A b K K c 7 7 7 7 7 7 7 7 7 U _ _ 5                   ",
"                  V W W X Y Y Z ` `  . . . ...+.+.@.#.#.$.%.%.&.*.*.=.-.-.-.-.-.-.-.-.-.-.-.-.-.-.-.-                   ",
"                  V W W X Y Y Z ` `  . . . ...+.+.@.#.#.$.%.%.&.*.*.=.-.-.-.-.-.-.-.-.-.-.-.-.-.-.-.-                   ",
"                  ;.;.;.;.>.>.,.'.'.).!.!.~.~.~.~.~.~.~.~.~.~.~.~.~.~.~.~.~.~.{.{.].^.^.]././.;.;.;.-                   ",
"                  (.(.(._.:.:.<.[.[.}.|.|.1.1.1.1.2.3.3.4.5.5.6.7.7.8.1.1.1.1._._.9.0.0.a.(.(.(.(.(.@                   ",
"                  b.c.c.d.e.e.f.g.g.h.i.i.j.k.l.l.5 c.c.m.c.c.m.l.l.+ k.k.l.k.j.j.n.o.o.p.q.q.m.r.r.5                   ",
"                  b.c.c.d.e.e.f.g.g.h.i.i.j.k.l.l.5 c.c.m.c.c.m.l.l.+ k.k.l.k.j.j.n.o.o.p.q.q.m.r.r.5                   ",
"                  s.t.t.t.t.t.t.t.t.t.t.t.t.t.t.t.t.u.u.u.t.t.u.v.v.t.t.t.t.t.t.t.t.t.t.t.t.t.t.t.t.t.                  ",
"                  w.x.x.y.z.z.z.z.z.z.z.z.z.z.z.z.A.B.B.y.C.C.y.B.B.A.z.z.z.z.z.z.z.z.z.z.D.D.x.x.x.E.                  ",
"                  w.x.x.y.z.z.z.z.z.z.z.z.z.z.z.z.A.B.B.y.C.C.y.B.B.A.z.z.z.z.z.z.z.z.z.z.D.D.x.x.x.E.                  ",
"                  F.G.G.H.I.I.J.K.K.L.M.M.N.O.P.P.Q.R.R.H.G.G.H.R.R.S.T.T.U.V.W.W.X.Y.Y.Z.`.`.G. + +.+                  ",
"                  ++@+@+#+$+$+%+&+&+*+=+=+-+;+>+>+,+'+'+)+)+)+)+!+!+T.~+~+{+,+,+,+]+^+^+/+(+(+@+@+@+_+                  ",
"                  ++@+@+#+$+$+%+&+&+*+=+=+-+;+>+>+,+'+'+)+)+)+)+!+!+T.~+~+{+,+,+,+]+^+^+/+(+(+@+@+@+_+                  ",
"                  :+<+<+[+}+}+|+1+1+2+3+3+4+;+>+>+{+5+5+6+6+6+7+~+~+8+9+9+>+0+4+4+3+a+a+b+c+c+d+e+e+f+                  ",
"                  g+h+h+i+j+j+k+1+1+l+3+3+4+;+m+m+{+5+5+n+5+5+o+9+9+0+;+;+p+q+r+r+s+k+k+t+u+u+v+w+w+x+                  ",
"                  g+h+h+i+j+j+k+1+1+l+3+3+4+;+m+m+{+5+5+n+5+5+o+9+9+0+;+;+p+q+r+r+s+k+k+t+u+u+v+w+w+x+                  ",
"                  y+z+z+A+B+B+C+D+D+r+q+q+4+]+E+E+~+~+~+F+o+o+9+]+]+;+4+4+G+l+D+D+k+U.U.U.H+H+I+J+J+K+                  ",
"                  L+M+M+N+O+O+k+s+s+r+P+P+p+m+o+o+Q+Q+Q+o+m+m+]+p+p+4+3+3+a+1+k+k+U.R+R+S+T+T+U+V+V+W+                  ",
"                  L+M+M+N+O+O+k+s+s+r+P+P+p+m+o+o+Q+Q+Q+o+m+m+]+p+p+4+3+3+a+1+k+k+U.R+R+S+T+T+U+V+V+W+                  ",
"                  X+Y+Y+Z+`+`+`+ @ @.@+@+@@@#@$@$@%@&@&@*@=@=@-@;@;@>@,@,@'@)@!@!@~@{@{@]@^@^@Y+Y+Y+W+                  ",
"                  /@Y+Y+Y+(@(@Z+(@(@(@(@(@(@(@(@(@(@(@(@(@(@(@(@(@(@(@(@(@(@(@Z+Z+Z+_@_@Z+:@:@Y+<@<@[@                  ",
"                  /@Y+Y+Y+(@(@Z+(@(@(@(@(@(@(@(@(@(@(@(@(@(@(@(@(@(@(@(@(@(@(@Z+Z+Z+_@_@Z+:@:@Y+<@<@[@                  ",
"                  }@}@}@}@}@}@}@}@}@}@}@}@}@}@}@}@}@}@}@}@}@}@}@}@}@}@}@}@}@}@}@}@}@}@}@}@}@}@}@}@}@}@                  ",
"                                                                                                                        ",
"                                                                                                                        ",
"                                                                                                                        ",
"                                                                                                                        ",
"                                                                                                                        ",
"                                                                                                                        ",
"                                                                                                                        ",
"                                                                                                                        ",
"                                                                                                                        ",
"                                                                                                                        ",
"                                                                                                                        "};
