/* XPM */
static char * top_down_forest_preview_xpm[] = {
"60 60 150 2",
"  	c #197A53",
". 	c #197C52",
"+ 	c #197D52",
"@ 	c #187853",
"# 	c #187454",
"$ 	c #187753",
"% 	c #187554",
"& 	c #1B7A55",
"* 	c #1D7E56",
"= 	c #187953",
"- 	c #187654",
"; 	c #197F52",
"> 	c #197B53",
", 	c #197E52",
"' 	c #197855",
") 	c #1B8056",
"! 	c #197754",
"~ 	c #187653",
"{ 	c #197654",
"] 	c #1D7F56",
"^ 	c #1A7855",
"/ 	c #197953",
"( 	c #197B52",
"_ 	c #187A53",
": 	c #187354",
"< 	c #1A7954",
"[ 	c #1B8054",
"} 	c #1A7F52",
"| 	c #1C8054",
"1 	c #197954",
"2 	c #197C53",
"3 	c #1B7B54",
"4 	c #1B7F54",
"5 	c #1B7D55",
"6 	c #1A7A54",
"7 	c #1A7B54",
"8 	c #1B7C54",
"9 	c #1B7C55",
"0 	c #1C7F55",
"a 	c #1A7F53",
"b 	c #1B7D54",
"c 	c #1C7F54",
"d 	c #1B7E55",
"e 	c #1B7A56",
"f 	c #1E7C57",
"g 	c #218459",
"h 	c #1B7E54",
"i 	c #218359",
"j 	c #1F7F59",
"k 	c #208059",
"l 	c #197554",
"m 	c #208159",
"n 	c #1D7D57",
"o 	c #1B7956",
"p 	c #22855A",
"q 	c #208258",
"r 	c #1D8156",
"s 	c #1D7C57",
"t 	c #21825A",
"u 	c #1E7F58",
"v 	c #1F8058",
"w 	c #1A7755",
"x 	c #22845A",
"y 	c #1C8055",
"z 	c #1E8157",
"A 	c #1F8257",
"B 	c #208259",
"C 	c #197D53",
"D 	c #1E7D57",
"E 	c #21835A",
"F 	c #1A7C54",
"G 	c #1A7E53",
"H 	c #1C7A56",
"I 	c #197655",
"J 	c #1E7C58",
"K 	c #1C7B56",
"L 	c #1C7956",
"M 	c #22845B",
"N 	c #1C7A57",
"O 	c #1A7D53",
"P 	c #1B7856",
"Q 	c #187553",
"R 	c #23865B",
"S 	c #1E8156",
"T 	c #197A54",
"U 	c #1C7C55",
"V 	c #1F8158",
"W 	c #1E7F57",
"X 	c #1F8357",
"Y 	c #1F8157",
"Z 	c #187754",
"` 	c #22855B",
" .	c #208458",
"..	c #1A7655",
"+.	c #1D7B57",
"@.	c #1C8155",
"#.	c #1C7C56",
"$.	c #1B7F53",
"%.	c #1C7E56",
"&.	c #1D8155",
"*.	c #208358",
"=.	c #1E7D58",
"-.	c #1A7B53",
";.	c #1A7C53",
">.	c #1A7D54",
",.	c #208359",
"'.	c #1A7955",
").	c #1F8258",
"!.	c #197854",
"~.	c #1D8056",
"{.	c #23855B",
"].	c #1E8257",
"^.	c #23865C",
"/.	c #1E8256",
"(.	c #1E7E57",
"_.	c #1B7756",
":.	c #1C7E55",
"<.	c #197853",
"[.	c #1F7F58",
"}.	c #197755",
"|.	c #1F8358",
"1.	c #1C7D56",
"2.	c #1A7B55",
"3.	c #1B7B55",
"4.	c #208459",
"5.	c #1A7E54",
"6.	c #1B7855",
"7.	c #1D8055",
"8.	c #1F7E58",
"9.	c #187B52",
"0.	c #23875B",
"a.	c #1D7D56",
"b.	c #1B7B56",
"c.	c #218559",
"d.	c #197555",
"e.	c #22835A",
"f.	c #1E8057",
"g.	c #1A7A55",
"h.	c #1C7D55",
"i.	c #1D8256",
"j.	c #1F8059",
"k.	c #1B7955",
"l.	c #197E53",
"m.	c #1C7B57",
"n.	c #22865A",
"o.	c #187C52",
"p.	c #1E7E58",
"q.	c #1D7E57",
"r.	c #1A7854",
"s.	c #187B53",
"  . + @ # $ % # & * % = % # - @ - + ; > > ,   % $ - # ' ) ! = $ # - = - . ; .   +   % ~ $ # { ] ^ $ @ # % = -   , + / + ",
"$ $ . + = @ % # @ . / + $ ~ ( . % / + @ - > + = @ - # $ + / + = % _ + - @ . _ %   +   @ ~ # % .   .   % = + $ $ . ( % / ",
"! : < [ } | 1 % $ . , 2 - 3 4   # % 5 6 : ! | } [ 7 % - > , . $ < 4 > % # 8 9 # { 0 a [ b - % > + + @ ! c 2 - # < d % # ",
"e # f g h i 0 @ # $ > - # j k % % l m n # o p 4 q r _ # - > $ # s t { % # u v % w x y z A > % % > @ # o x w % # s B { l ",
"C $ D E ! w 2 @ # l { % # k k - > - F G = H x ^ I >   # l { % # J t { > $ 6 G   w x K { 6 2 % l { % # L M w _ @ 1 G 2 { ",
"$ = G 4 > % > @ N t m F - k k $ + . @ $ = O | 2 -   _ P t t 5 $ J t { + . = $ @ 2 | O $ @ ( I k t ] @ L M w ( + _ $ $ > ",
"#   . @ @ % $ Q J R S T % U V W , = % : @ + @ @ % - ~ L R X 7 % & Y v G   - : Z + = @ - - $ w `  .b ~ ^ z v 4 ( Z # % + ",
"# @ $ ..+.l # ~ W x   # # _ @.z   % # # Z @ l +...# % #.` F % : @ $.A 7 % # # - = % N P # % 6 ` %.~ : ~ G X b ~ # # % = ",
"# # # H M w # _ &.V % - %   +   # # # # # # w M H : @ [ *.I - % @ + > % # # # # # l t =.: ~ G *.o % - Z + 2 - # # # # # ",
"{ % # o E w #   , -.^ > $     % # % I { % # ..E o : @ , ;.^ > @ @ > - # % I I % # l m s : Z + C < T   $ 2 $ # % { I % # ",
"0 @ # ! >.- #   > H t ^   @ @   - 2 ,.S = # - >.! # @ 2 '.t e =   $ > -   A ).> # # F 1 # Z . !.m s @ > $ > - = ~.i 2 % ",
"@.@ # $ . % # % #.M {.w - % % - % C p ]._ # % . $ # % & t R H % - % - % >  . .2 % # ( = # % !.m ^.=.% - # - % _ /.p O - ",
"a . $ % @ % # $ h z s l @         , &.[ . @ % $ % # ~ F S n ..$         + y @.+ = % $ - # % > S (._.~         . [ &., _ ",
"  0 :.$ # # #   + @ # # =     > , , ( _ h ~.<.# # # @ + = # # @     > , , . _ F ~.T % # # Z + _ % # Z       + , . _ > r ",
"# k  .> # # -   = # # # # # # - > + $ : J p O % # % =   # # # # # # %   + @ : L ` 4 $ # % @   % # # # # # # / +   # ..M ",
"# [.X . - % > = # # % # % % % % $ 2 $ # s g C $ #     # # % # % % # % - > = # o g $.@ # @ > % # % % % % # % -     % ..i ",
"$ 7 a , 2 - > = # ! > - > @ @ + . $ > @ 1 a , C Z     % { > $ / / - . . @   / ! a , C !.@ > % l > @ @ > - 2 + = = > - G ",
". + , | q }.- = ] V , . + @ @ , , . + + . , a *.o % = 5 B a . +   $ , , . + + . , , |.s % @ F m c . + 2 - + , + . + . , ",
", , . < s T % ~ W x 1 @ @ - - @ / + , , , . 1 s 7 ~ % 1.{.2.@ @ Z % @ = + , , , + / K 3.@ % 6 ` 1.@ @ $ % @ @ . , , , , ",
"> . . $ % = - : K W % $ % # - $ % + , 2 . + @ # @ $ : ^ Y I $ - # % $ % > , . > + = % $ @ # I Y ^ ~ - # # $ %   , + > + ",
"$ @ + . $ ~ % # @ . @ + $ %   2 - > + @ $ . + @ $ % # $ + @ . = % = + - / +   - > + = $ - # % . = >   % $ + $ @ + . % > ",
"! # 1 a , G !.# @ + + . - 6 G > # % >.1 # ! a , G T # - . + + @ !.G 2 % # 7 7 # - G , G 7 % % 2 + + = ! G C - # 1 >.% % ",
"o : s 4.4 g 0 @ # @ . - # [.v % # l m s # o g 4 *.r = # - . @ # s B { % # u [.# ..i y A A > % - > / # o E ^ % # s B l % ",
"O $ =.E !.o O @ # % - # # k k -   - 5 5.@ L M '.6.F   # # - % : =.E {   - 3.4 _ w M #.^ 9 . % # - % : L M w = $ < c > { ",
"@ = h 7.  % ( @ o k [.7 - k k ~ + > = @ = F r > % _ _ w j j 9 ~ J t { + > = @ = > r F ~ @ . { 8.k 1.$ L M w 9.. = @ =   ",
"#   + _ = % @ ~ J 0.|.7 - a.V a.,   % : @ + _ _ - $ $ L R  .b ~ b.).n G > Z : Z + _ _ ~ - @ w {.c.0 $ ^ ).(.5.. @ # % + ",
"# = @ d.P l # % (.x > % # _ &.|.> % # # $   l P I # % K ` b - # @ [ *.>.- # # -   % P ..# % '.M 0 $ # ~ G  .:.$ # # %   ",
"# # # L e.w # = /.B l % #   , > % # # # # # w e.L : @ | E w % # @ , 2 - # # # # # l t =.: ~ G g H % % Z + C Z # # # # # ",
"% # # L x w #   a F { > $   > % # # l % # # w x H : @ , 5.!   @ @ . - # # % % # # l t =.: $ , G !./ / $ . $ # # % l # # ",
"5 $ # !.:.{ #   9.& k <   = = / % > V ] @ # { :.!.# @ . 1 k & =   @   % / f.f.  # % 5 6 # $ + <.[.s =   @   - @ ] V > % ",
"@.@ : $ . % # ~ K t {.w $ - - $ % C p X _ # % . $ # - g.k ^.H ~ - % @ % >  . .2 # # ( = # % 1 [.R =.% $ # $ % = /.p G % ",
"[ 9.~ % = % # ~ h.*.8.I $ @ @ @ = + /.@.. $ % = - # % 3 *.v w ~ @ @ @ = . r i.+ @ % @ $ # % 1 A m o - @ @ @ @ ( y ]., = ",
"> 4 b - # # #   +   # #   2 > . , , . ( G h Z # # # @ + > % # @ 2 > . , , + ( O c !.% # # Z + 2 - # $ > > 2 + , + > 2 c ",
"# j.*.> # # %     # # # # # # $ + + $ # f g C % # % = > % # # # # # - . , = # o p 4 $ # # $ > - # # # # # %   ,   # w x ",
"# j  .2 % # > = % # # # # # # % $ . $ # s c.O - # /   % # # # # # # % - 2 = # o p 4 $ # @ > - # # # # # # # %     # ..x ",
"- 3.[ + > - > = # -   % / $ $ 2 > @   $ < [ , 2 -     # %   - @ = - > > @   @ ! | , . $ @ . # #   $ $   %   2 = =   { 0 ",
"> . , [ A I $ = U W , > + @ @ , , > + . ( , a A ^ ~ = 8 u G ( +   $ , , > . + > , , /.K % = 7 u 4 . . . - + , . 2 + > + ",
", , . 3.[.< % $ f.x >     - -     , , , , + 7 [.3.- ~ :.{.8 _   $ % /   + , , , , > (.#.~ % F {.%._   @ % =   . , , , , ",
". + > - %   - # #.V l - % # % - % + , + + . $ % / $ # k.B w - % # % - % > , + . + @ % @ = # I B o % - # # - %   , + . + ",
"$ / + > - - # # / 2 $ . $ # = > - . , = @ + + Z - % # Z C $ > @ # @ . -   ,   $ . + @ - % # % C <.    # - . $ = , . - 2 ",
"Z # / , + C Z # @ + + + $ / , > % - 2 / # <.l.+ C <.# Z + + + @ !.C . % % >   # - C + C   # % . + +   - C + $ # / 2 % - ",
"k.: m.|.$. .d $ % = + @ % (.f.- # % V s : o *.$.X ~.@ % @ + = % K V ! # # (.W # I q | /.z   % $ .   % k.B < % # K V l % ",
"F ~ =.x < s 5.@ : % $ # # k k % = % ] h $ L {.3.K h   # # $ % : =.e.{ = - #.0 @ w M 1.e h.. # # $ - : L M w @ ~ & ~.  { ",
"  = h.z <.% ( @ w J s 1 % k k ~ + / = _ = 3 A 6 % _   ..s f 6 Q =.t { .   = _ _ T A 9 Q @ . { +.J & ~ L M w 9.> = _   / ",
"#   + .   %   $ J 0.g F - (.v 3., 2 - # @ + . > - @ @ L R p h $ K B K C . $ # $ + . ( $ $ = w M n.~.@ 6.,.+.O + = # % + ",
"# /   l w # # % D p O - #   /.*.2 - # # @ > % w l # # H ` h $ # @ y g 5.$ # # - > - I l # % ^ M ~.@ # Z 4 g 0 @ # # % > ",
"# % # o t ..# = S t { % #   a >.- # # # % % ..t o : $ 0 x ^ % # @ , G ! # # # # % l k s : ~ 5.p K # # $ , G !.# # # # % ",
"# # # H M w #   a 5 -   -   > - # # # # # # w M H : @ a 0 { = $ @ . $ # # # # # # l t =.: $ , | !.@ = $ + @ % # # # # # ",
"3 ~ # ^ ~.{ #   o.6 p.6 _ / / @ % / (.1.$ # { ] ^ : @ . 1 p.3.= / = / % @ a.q.= # % * 3.# $ + = D #.=   = / - $ U (.  % ",
"@.@ : $ . % # $ 3.k {.w @ - - @ % C p X _ # % . $ # ~ 6 p.{.H $ $ % = % >  . .2 # # ( = # % T s {.=.~ @ % = - = /.p G % ",
"[ _ % -   % # % 1.x m I - $ $ $ @ C |.&.9.- %   - # % & g t P % $ $ $ $ . /.].. $ % / $ # % r.,.E N % $ $ $ $ s.&.*.l.@ ",
"+ G 7 % # # #   , > l %   . . + , , C + G F - % # # @ , 2 { # = . . . + , , C C G ! % # # - + C ! # $ . . . + , , C + G ",
"% [.X > # # #     % # # % % % @ + , @ % n g 2 % # # @ 2 - # # % % % - . , / % e g 5.~ # # $ . $ # # % % % - > , > % w i ",
"# k  .2 # #   = % # # # # # # % @ + $ : J p O % # @   - # # # # # # # $ . = : L ` 4 $ # $   $ # # # # # # # - >   # ..M ",
"% U @.+ = % . @ : % = % @ Z -     @ / ~ & &., _ -     # # = - $ @ -     = / $ ^ r G 9.~ @ . # # @ Z - @ % /   = = @ { ~.",
"  ( , $.~.{ @ = & 1.,   + @ @ , , / + >   , a r ^ $ = < s G   .   $ , ,   2 .   , , &.& -   1 s 5.> > . - + , > > + = + ",
", , + 5 m r.% @ z x 2 > > $ $ > . , , , , + F m & % $ 0 ` b ( 2 @ - > 2 + , , , , 2 V s % - >.p 0 9.2   %   2 + , , , , ",
"+ , > - { > - # s B { - % # % % - + , + + . - l   @ # o E w % % # # - % > , + + + $ l / / # w E H % % # # - %   , , + , ",
"@   , > % - % # 1 F - > - # @   - . , = = + . - % % # ! O -   @ # $ > - > ,   @ + + $ % % # % >.!.= / # % > Z / , . $ . ",
"$ %   + 2 > - # @ + . + $ @ + 2 % $ . @ % = + . > $ # $ + . + @ $ . + - - >   % $ + . 2 @ # % . . +   - > + $ %   2 % Z "};
