/* XPM */
static char * exit1_xpm[] = {
"60 60 24 1",
" 	c None",
".	c #646464",
"+	c #393939",
"@	c #888888",
"#	c #C6CED7",
"$	c #5E3211",
"%	c #844716",
"&	c #FFFFFF",
"*	c #A9601B",
"=	c #D17820",
"-	c #F0F0F0",
";	c #FC8525",
">	c #FEA14C",
",	c #BC6B1E",
"'	c #AAAAAA",
")	c #975319",
"!	c #703D14",
"~	c #424242",
"{	c #7B7B82",
"]	c #1E1E1E",
"^	c #CCCCCC",
"/	c #4C5050",
"(	c #51201E",
"_	c #532E29",
"                                                            ",
"                                                            ",
"                                                            ",
"                                                            ",
"                                                            ",
"                                                            ",
"                                                            ",
"                                                            ",
"                                                            ",
"                                                            ",
"                                                            ",
"                                                            ",
"                                                            ",
"                                                            ",
"                ...                      ...                ",
"               +@@@+                    +@@@+               ",
"               +###$%%%%%%%%%%%%%%%%%%%%$###+               ",
"               +&&&$*===================$&&&+               ",
"               +---$*===;;;;>;>>>>>>>>>>$---+               ",
"               +&#&$$%%%*******,*,*,,===$&#&+               ",
"               +###$%,,=====;;;;;;;;;;;;$###+               ",
"               +#'#$%)*)*)*)*===========$#'#+               ",
"               +'''$!!!!!!!%!%%%%%%%*%*%$'''+               ",
"               +@@@$!!!%!%.#---##~******+@{@+               ",
"               +{{{]~@@''@]......]''^^^'+{{{+               ",
"               +''']]]]]]]^.{]]{.']]]]]]+'''+               ",
"               +]]]+]]]]]].{{++{{.]]]]]]+]]]]               ",
"               +{//+]]]]]]+++{{+++]]]]]]+.//+               ",
"               +{//+]]]]]]]]]++]]]]]]]]]+.//+               ",
"               +{//+]]]]]]]]]]]]]]]]]]]]+.//+               ",
"               +{//+]]]]]]]]]]]]]]]]]]]]+.//+               ",
"               +{//+]]]]]]]]]]]]]]]]]]]]+.//+               ",
"               +{//+]]]]]]]]]]]]]]]]]]]]+.//+               ",
"               +{..+]]]]]]]]]]]]]]]]]]]]+...+               ",
"               +'..++++++++++++++++++++++{..+               ",
"               +'{{++.....{{{{{{'''''''{.{..+               ",
"               +''{+]]]]]]]]]]]]]]]]]]]]+''{+               ",
"               ++.++(____$$$$$$$$$$$$__(++.++               ",
"               +.{.+($!!!!!!!!!!!!!!!!!$+.{.+               ",
"               +{.{+($!!!!!!!!!!!!!!!!!$+{.{+               ",
"               +.{.+]]]_]_]$(($((((](](]+.{.+               ",
"               +...+($!$!$!$!$!$!$!$!$!$+...+               ",
"               +...+($$!$!$!$!$!$!$!$!$$+...+               ",
"               +...+]]]]]]]]]]]]]]]]]]]]+...+               ",
"                +++]                    ]+++                ",
"                                                            ",
"                                                            ",
"                                                            ",
"                                                            ",
"                                                            ",
"                                                            ",
"                                                            ",
"                                                            ",
"                                                            ",
"                                                            ",
"                                                            ",
"                                                            ",
"                                                            ",
"                                                            ",
"                                                            "};
