/* XPM */
static char * exit_xpm[] = {
"60 60 23 1",
" 	c None",
".	c #646464",
"+	c #393939",
"@	c #888888",
"#	c #AAAAAA",
"$	c #5E3211",
"%	c #844716",
"&	c #C6CED7",
"*	c #A9601B",
"=	c #F0F0F0",
"-	c #BC6B1E",
";	c #D17820",
">	c #FC8525",
",	c #FFFFFF",
"'	c #FEA14C",
")	c #975319",
"!	c #7B7B82",
"~	c #703D14",
"{	c #424242",
"]	c #1E1E1E",
"^	c #CCCCCC",
"/	c #51201E",
"(	c #532E29",
"                                                            ",
"                                                            ",
"                                                            ",
"                                                            ",
"                                                            ",
"                                                            ",
"                                                            ",
"                                                            ",
"                                                            ",
"                                                            ",
"                                                            ",
"                                                            ",
"                                                            ",
"                                                            ",
"                ...                      ...                ",
"               +@@@+                    +@@@+               ",
"               +###$%%%%%%%%%%%%%%%%%%%%$###+               ",
"               +&&&%********************%&&&+               ",
"               +===%*-------;-;-;>;>;>>>%===+               ",
"               +===$$%%*%*%*************$===+               ",
"               +,,,%*>>>>>>>>>>>>>>'''''%===+               ",
"               +,,,%*--;-;-;;;;;;;>;>;>>%===+               ",
"               +,,,$*-;-;-;;;;;;;>;>;>;>$,,,+               ",
"               +,&,$*;-;-;;;;;;;;;;;;;;;$,&,+               ",
"               +&&&$$$%$%%%%%%%%%%%%%%%%$&&&+               ",
"               +&&&$%------;-;-;-;;;;>;>$&&&+               ",
"               +&#&$%-------;-;-;-;;;;;;$&#&+               ",
"               +###$%))*)*)*)*)*)*)*****$###+               ",
"               +@@@$%)*)*)*)************$@@@+               ",
"               +@!@$~~~~~~~%~%%~%%%%%%%%$@!@+               ",
"               +!@!$~~~~%~%%%%)%)%)*)*)*$!@!+               ",
"               +!!!$~~~%~%%%)%))))))))))$!!!+               ",
"               +!!!+{@@##@.&===&&{@####@+!!!+               ",
"               +###+]]{{{{]......]{{{{{]+###+               ",
"               +{.]]{....{^.!]]!.#{.....]].{+               ",
"               +!!!+]]]]]].!!++!!.]]]]]]+!!!+               ",
"               ++.++/(((($+++!!+++/$$((/++.++               ",
"               +.!.+/$~~~~~~]++]/~~~~~~$+.!.+               ",
"               +!.!+/$~~~~~~~~~~~~~~~~~$+!.!+               ",
"               +.!.+]]](](]$//$////]/]/]+.!.+               ",
"               +...+/$~$~$~$~$~$~$~$~$~$+...+               ",
"               +...+/$$~$~$~$~$~$~$~$~$$+...+               ",
"               +...+]]]]]]]]]]]]]]]]]]]]+...+               ",
"                +++]                    ]+++                ",
"                                                            ",
"                                                            ",
"                                                            ",
"                                                            ",
"                                                            ",
"                                                            ",
"                                                            ",
"                                                            ",
"                                                            ",
"                                                            ",
"                                                            ",
"                                                            ",
"                                                            ",
"                                                            ",
"                                                            ",
"                                                            "};
