/* XPM */
static char * multiple_three_xpm[] = {
"60 60 7 1",
" 	c #187454",
".	c #197E52",
"+	c #24875C",
"@	c #185D3C",
"#	c #154E43",
"$	c #2D9C45",
"%	c #1E7B47",
"     .  +.  .        .  +.  .        .  +.  .        .  +.  ",
" . .. . ... .  . . .. . ... .  . . .. . ... .  . . .. . ... ",
".. .......+  .+... .......+  .+... .......+  .+... .......+ ",
"     ....  .  +      ....  .@ +      ....  .  +      ....  .",
".  . .. ..    . .  . .. .. #$@# .  . .. ..    . .  . .. ..  ",
". ..  .  ...  ... ..  .  .#@$@#@. ..  .  ...  ... ..  .  ...",
"  +   +  +.+.  .  +   +  #@$$@##@ +   +  +.+.  .  +   +  +.+",
"  + . .. +  .     + . ..@@$$$%@@##+ . .. +  .     + . .. +  ",
". + ..  ... . ++. + .. #@$$$$%@@@## ..  ... . ++. + ..  ... ",
"  .+.   .     +.  .+. #@$$$$$%%@@@#+.   .     +.  .+.   .   ",
"  ..      +  .+   .. #@$$$$$$$$$@%##      +  .+   ..      + ",
". .       +  .. . . #%$$$$$$$$%%%@@###    +  .. . .       + ",
" . . .+.  .  . + .##%$$$%$$$%%%%@@@@####  .  . + . . .+.  . ",
"     .+.  .   ++###@$$$%%%$$$$%%%%%@###.  .   +#     .+.  . ",
"#........    ..###@$@$%%%%%%$%%%%@@@@#...    .#@#........   ",
"##  ..# +.   .  @@@@$$%%%%%$$$$%@%%%@@###.   #@@##  ..# +.  ",
"###  ###+.  .   ##@$$%###@%%$%%@@@@@@#####  #@@####  ###+.  ",
"###.##@##.. . ##@@$$$%%@@$$$$$$%%@@%%@#####@@@@@###.##@##.. ",
"######@###+  ##@%$$%%%%@@@%%$$@@@@@@@@################@###+ ",
"######@#######@$$%%%@@%%#@@$$$%@@@@%@@@###############@#####",
"######$@####@@%%%%@@@@%@###@$##@@##@@@@###############$@####",
"#####@$@#@###@@%@@@%%@@@########%%###@###@###########@$@#@##",
"####@$$@##@####@@@%%%%@@@@@@@@@###@@@###@%@#########@$$@##@#",
"##@@$$$%@@####@@%%$%%@@$@@%%%%%%%#@%%###@%@#######@@$$$%@@##",
"##@$$$$%@@@##@@$%$$%@%%$@@@@%$%@@##@%%#@@#@@@#####@$$$$%@@@#",
"#@$$$$$%%@@@#@%$$$%@@$$$%@@$$$$%###%%%%######@###@$$$$$%%@@@",
"@$$$$$$$$$@%##$$$%@@$$$@@@@@$$$@@##@%@##########@$$$$$$$$$@%",
"$$$$$$$$%%%@@#$%$@@$$$%@@##%%$@####%%%%##@@####%$$$$$$$$%%%@",
"$$%$$$%%%%@@@@#%$@%$$$@@@#@#$$%@@##@%###@@@@##%$$$%$$$%%%%@@",
"$%%%$$$$%%%%%@##@@$$%$@@%@#%%$%@#######@@@@@#@$$$%%%$$$$%%%%",
"%%%%%%$%%%%@@@@##%$%%@@%%@@#@%@@@#####@@@%%@@$@$%%%%%%$%%%%@",
"%%%%%$$$$%@%%%@@##$%@$%$%@@##%############@@@@$$%%%%%$$$$%@%",
"###@%%$%%@@@@@@#####@$$$$%@#######@@@%###@@%@$$%###@%%$%%@@@",
"%@@$$$$$$%%@@%%@##@@#$%%$@@@%%%%@@@%%%#@##@@$$$%%@@$$$$$$%%@",
"%@@@%%$$@@@@@@@@##@####%%@@%%$%%%%@%%%@@#@%$$%%%%@@@%%$$@@@@",
"%%#@@$$$%@@@@%@@@#####@@%%%$$$$%%%@@@%%@@$$%%%@@%%#@@$$$%@@@",
"%@###@$##@@##@@@@###$%@@@%%%%$%@@@@@%%@@%%%%@@@@%@###@$##@@#",
"@@########%%###@###@##%@@@@@$$$@@@@##@@@@%@@@%%@@@########%%",
"@@@@@@@@@###@@@###@%@#@@@@@%%$%@@@###%%@@@@@%%%%@@@@@@@@@###",
"@$@@%%%%%%%#@%%###@%@#####@@@%%@#######@@@%%$%%@@$@@%%%%%%%#",
"%$@@@@%$%@@##@%%#@@#@@@####@%%%@###@###@@$%$$%@%%$@@@@%$%@@#",
"$$%@@$$$$%###%%%%######@####@%@@##@@@##@%$$$%@@$$$%@@$$$$%##",
"$@@@@@$$$@@##@%@#############@@##@@@##@%$$$%@@$$$@@@@@$$$@@#",
"%@@##%%$@####%%%%##@@############@@##@%$$%$@@$$$%@@##%%$@###",
"@@@#@#$$%@@##@%###@@@@##@@######@@##@%$%$%$@%$$$@@@#@#$$%@@#",
"@@%@#%%$%@#######@@@@@###@@########@%$$%%@@@$$%$@@%@#%%$%@##",
"@%%@@#@%@@@#####@@@%%%@###@@######$$%#%@@@@%$%%@@%%@@#@%@@@#",
"%$%@@##%############@@%####@#######@@@#@%$@@$%@$%$%@@##%####",
"$$$%@#######@@@%###@@%%###############@%$$%@@%@$$$$%@#######",
"%%$@@@%%%%@@@%%%#@##@#@@@########@@####$%$@@@@$$%%$@@@%%%%@@",
"@%%@@%%$%%%%@%%%@@#######@######@@###@$$@%@@@%%@@%%@@%%$%%%%",
"@@%%%$$$$%%%@@@%%@##########@########$$%@@@@%@@%@@%%%$$$$%%%",
"@@@%%%%$%@@@@@%%%@@#########$@######@%@%@@@@$@$%@@@%%%%$%@@@",
"%@@@@@$$$@@@@##@@%@########@$@#@####%%@@@#@@%$$$%@@@@@$$$@@@",
"@@@@@%%$%@@@###%%@@#######@$$@##@##@@%@@####$$%@@@@@@%%$%@@@",
"@###@@@%%@#######@@#####@@$$$%@@############%$$%@###@@@%%@##",
"#####@%%%@##############@$$$$%@@@##########$%%@@#####@%%%@##",
"######@%@@#############@$$$$$%%@@@########@%@@########@%@@##",
"#######@@#############@$$$$$$$$$@%########@@###########@@###",
"########@############%$$$$$$$$%%%@@#####################@###"};
