/* XPM */
static char * multiple_three2_xpm[] = {
"60 60 10 1",
" 	c #1E7B47",
".	c #185D3C",
"+	c #154E43",
"@	c #2D9C45",
"#	c #197E52",
"$	c #187454",
"%	c #24875C",
"&	c #4B3037",
"*	c #1A5F5A",
"=	c #544538",
"   ..  +..@@@ .... ...+++++++++++++++.##$$#$$%$$$$$$####$$#$",
" .... .+++.@++..++....+++++++++++++++@.##$$$$#$#$$#$##$##$$$",
"..  ...++++++++  +++.+++.+++++++++++.@.+.##$$###$##$$#$$###$",
".    .........+++...+++. .+++++++++.@@.++.%#$$#$$%$$$%$$%#%#",
" @  ..@..       +.  +++. .+++++++..@@@ ..++#$$$$$%$#$##$%$$#",
"@@ .  @.... @ ..++.  +..+...+++++.@@@@ ...++$%%#$%$##$$###$#",
"@ ..@@@ ..@@@@ +++    ++++++.+++.@@@@@  ...+$%#$$#%#$$$#$$$$",
" ..@@@.....@@@..++. .++++++++++.@@@@@@@@@. ++%$$$##$$$$$$%$$",
"..@@@ ..++  @.++++    ++..++++ @@@@@@@@   ..+#$#$#$$$$$$$%$$",
". @@@...+.+@@ ..++. +++....++ @@@ @@@    ....+%$#$#$#%#$$#$$",
".@@ @.. .+  @ .+++++++.....+.@@@   @@@@     .++$$$$$#%#$$#$$",
" @  ..  ..+. ...+++++...  ..@.@      @    ....++########$$$$",
"+@ .@ @ ..++ ++++++++++++....@@     @@@@ .   ..++$$##$$%#$$$",
"+++.@@@@ .+++++++... +++.. .@@ +++.  @  ......+++++$#$$%#$$#",
"+..+@  @...    ...   +.++..@@@  ..@@@@@@  ..  .++..+$#$###$#",
"+.++++  ..  @    .   ..+. @@    ...  @@........++.++++###%$$",
"+++++..   @@@@   ...  ..@@   ..  +..@@@ .... ...+++++###$$#$",
"+++@ ...    @ .....  ..    .... .+++.@++..++....+++$##$##$$$",
"++.++ .....@@@....++.... ...  ...++++++++  +++.+++.++#$$###$",
"+. .+.....  @ ...+++  .....    .........+++...+++. .+%$$%#%#",
"+. .+++++...  .+++++++...  @  ..@..       +.  +++. .+++$%$$#",
"..+...++++.   .+++.+++..@ @@ .  @.... @ ..++.  +..+...++##$#",
"++++++.++++. ..++...++. @@@ ..@@@ ..@@@@ +++    ++++++.++$$$",
"++++++++++++..++...++. @@@ ..@@@.....@@@..++. .+++++++++++$$",
"++..++++++++++++..++. @@ @..@@@ ..++  @.++++    ++..+++++%$$",
"+....++..++++++..++. @ @ @. @@@...+.+@@ ..++. +++....+#$$#$$",
".....+++..++++++++. @@  ...@@ @.. .+  @ .+++++++.....++$$#$$",
"..   .+++..++++++@@ + .... @  ..  ..+. ...+++++...   .+#$$$$",
"+++.. ++++.+++++++...+. @..@ .@ @ ..++ ++++++++++++.. +%#$$$",
"++..  +++++++++++++++. @@ .. .@@@@ .+++++++... +++..  +++$$#",
".++.+...++++++++..++++@ @....@@  @...    ...   +.++.+...++$#",
".+++++++.++++++..+++.@@. ...  ..  ..  @    .   ..+++++++.++$",
".++++++++++.++++++++@@ .... .. ..   @@@@   ...  .++++#+++$#$",
"..+++++++++@.++++++. . ....@.@ ...    @ .....   ..+++#$##$$$",
" .++++++++.@.+.++++  ...+.. @@@ .....@@@....++.. .++++$$###$",
"..+++++++.@@.++.++.. ..+++@@@ ......  @ ...+++  ..+++++$%#%#",
"..+++++..@@@ ..++++++++++++ @@ .+++...  .+++++++..+++++++$$#",
"+++++++.@@@@ ...++++++++++@  ..+++++.   .+++++++++++++++##$#",
"++++++.@@@@@  ...++++++++. ..++++++++. ..++++++++++++$$#$$$$",
"+++++.@@@@@@@@@. ++++++++..+++++++++++..+&*++++**+++$$$$$%$$",
"++++ @@@@@@@@   ..+++++++++++++++++++&+.&&***+$**$**$$$$$%$$",
"+++ @@@ @@@    ....+++++++++++++++++&&&&&&&***$*******#$$#$$",
"++.@@@   @@@@     .++++++++++++++++&&&&&&&&&******$***#$$#$$",
"..@.@      @    ....++++++++++++++&&&&&=&&&&&**$**$***##$$$$",
"...@@     @@@@ .   ..++++++++++++++++&==&&*****$******$%#$$$",
"+.@@ +++.  @  ......+++++++++++++++++&&=&$**$**$*$***$$%#$$#",
".@@@  ..@@@@@@  ..  .++..+++++++++++++&&&$**$****$*#$#$###$#",
"@@    ...  @@........++.+++++++++++++++&*********$#######%$$",
"   ..  +..@@@ .... ...+++++++++++++++.##$$#$$%$$$$$$####$$#$",
" .... .+++.@++..++....+++++++++++++++@.##$$$$#$#$$#$##$##$$$",
"..  ...++++++++  +++.+++.+++++++++++.@.+.##$$###$##$$#$$###$",
".    .........+++...+++. .+++++++++.@@.++.%#$$#$$%$$$%$$%#%#",
" @  ..@..       +.  +++. .+++++++..@@@ ..++#$$$$$%$#$##$%$$#",
"@@ .  @.... @ ..++.  +..+...+++++.@@@@ ...++$%%#$%$##$$###$#",
"@ ..@@@ ..@@@@ +++    ++++++.+++.@@@@@  ...+$%#$$#%#$$$#$$$$",
" ..@@@.....@@@..++. .++++++++++.@@@@@@@@@. ++%$$$##$$$$$$%$$",
"..@@@ ..++  @.++++    ++..++++ @@@@@@@@   ..+#$#$#$$$$$$$%$$",
". @@@...+.+@@ ..++. +++....++ @@@ @@@    ....+%$#$#$#%#$$#$$",
".@@ @.. .+  @ .+++++++.....+.@@@   @@@@     .++$$$$$#%#$$#$$",
" @  ..  ..+. ...+++++...  ..@.@      @    ....++########$$$$"};
