/* XPM */
static char *dummy[]={
"60 60 17 1",
". c None",
"f c #000000",
"j c #1bb51b",
"k c #253266",
"l c #2f5b86",
"o c #4cb3cc",
"c c #640202",
"d c #6f524b",
"e c #794542",
"n c #a14bfb",
"g c #aaacaa",
"a c #ae0303",
"b c #d18666",
"# c #e72626",
"h c #f2d89d",
"i c #f8fcf8",
"m c #fe5ff6",
"............................................................",
"............................................................",
"............................................................",
"............................................................",
"............................................................",
"............................................................",
"............................................................",
"............................................................",
"............................................................",
"............................................................",
"............................................................",
"............................................................",
"............................................................",
"............................................................",
"............................................................",
"............................................................",
"............................................................",
"....................###.....................................",
"...................####.#a#a................................",
"...................##aaa##aa................................",
"...................###aa##a.##..............................",
"..................a###########..............................",
".................aa#########aa..............................",
"...............aaaa#####aaaaaaaaa...........................",
"..............baaa####aaaaccaaaaa...........................",
".............abbaa##a#aaddccaaa#............................",
".............abeb##a##ddd#acca##............................",
".............abeb####aab##adcaaaaa..........................",
".............abeb#a###aa##afcaaaaaa.........................",
".............abeaaa##########aaaaa..........................",
".............abaaaa#####aaaaa#aaa...........................",
".............aba#a####aaaaccaaaa............................",
".............abb#a##aaaaddccaaaaa...........................",
"............aabeb##aaadddbdccaaaa...........................",
"............aabeb##aadbbbbbdcaaa............................",
"...........ababeb##ffbbbbbbfgaa.............................",
"............aabeeb#bfffbbhffga..............................",
"...........iaabbeb#bijfbhhfjgg..............................",
"..........iiiaabbb#biihhhhhigh..............................",
"..........iiiaaaaa#bbbhhbbhhgg..............................",
"..........iifabaaa#bbhhhbbhhgg..............................",
"...........iiababaaabhhhhhhgggg.............................",
"...........iiaiabkkkalhhhlgggggg............................",
"...........iifffbkkkklbbllleggggg.mmm.......................",
"...........ifnmmkkkkklbblllogggggmnn........................",
"...........ifnnnmmkkklbllloegggggn..........................",
"...........ifnnnnnmmkllllleegggmm...........................",
"...............nlnnmlollloeeeggn............................",
"...............kkkkkkkoooleegggg............................",
"...............lkkkkkklllleggggg............................",
".............lkkkkkkkklllloggggg............................",
".............lklkkkkkkklloccggg.............................",
"............lkbblkkkkkkkoekkbaa.l...........................",
"............laabbllkkllleekkballl...........................",
"............lllabbbllacccckkkalll...........................",
"............lllll...lllkkkkl..ll............................",
"............lllll...llllkkkkl...............................",
"............................................................",
"............................................................",
"............................................................"};
