/* XPM */
static char * player2_xpm[] = {
"25 43 21 1",
" 	c None",
".	c #181818",
"+	c #161616",
"@	c #3A3A3A",
"#	c #2C2C2C",
"$	c #232323",
"%	c #424242",
"&	c #EB9F7F",
"*	c #000000",
"=	c #D17F6B",
"-	c #945848",
";	c #F2F2F0",
">	c #4884D4",
",	c #425BBD",
"'	c #F1C28F",
")	c #6C3B4F",
"!	c #E1534A",
"~	c #AD3E50",
"{	c #243F72",
"]	c #007DC7",
"^	c #42CAFD",
"          .....          ",
"       .....+.....       ",
"     ..@##$$$$$##@..     ",
"   .$$$.@%#$$$#%@.$$$.   ",
"   .###$$@%#$#%@$$###.   ",
"  .#@%%@#$@%@%@$#@%%@#.  ",
"  .$...$%%@%@%@%%$...$.  ",
" .$.@@$$..$###$..$$@@.$. ",
" .$#$.&&&&&...&&&&&.$#$. ",
" .$...&&&&&&&&&&&&&...$. ",
" .$#.&&&&&&&&&&&&&&&.#$. ",
" *.@.&&&&&&&&&&&&&&&.@.. ",
"*=.@.&&&&&&&&&&&&&&&.@.+*",
"*=-..&&&&&&&&&&&&&&&..-=*",
"*=-..=----&&&&&----=..-=*",
"*=--+=;>>;=====;>>;=+--=*",
" *=*+=;,,;=====;,,;=+*=* ",
"  **+&&&=========&&&+**  ",
"    +=&&&&&&-&&&&&&=+    ",
"    *='&&&&&&&&&&&'=*    ",
"     *==&&=---=&&==*     ",
"      **='&&&&&'=**      ",
"        **=====**        ",
"       *))*****))*       ",
"      *!~~)))))~~!*      ",
"     *!~~~~~~~~~~~!*     ",
"     *!~)~~~~~~~)~!*     ",
"    *!~~)~~~~~~~)~~!*    ",
"    *!~)~~~~~~~~~)~!*    ",
"   *!~~*~~~~~~~~~*~~!*   ",
"   ***)*~~~~~~~~~*)***   ",
"  *=&&**)~~~~~~~)**&&=*  ",
"  *&&'*{])))))))]{*'&&*  ",
"  *&&**{]^]]]]]^]{**&&*  ",
"   ** *{^^^^^^^^^{* **   ",
"      *{^^^]]]^^^{*      ",
"      *{^^]{{{]^^{*      ",
"      *{^^^***^^^{*      ",
"      *{^^]* *]^^{*      ",
"      *{]]*   *]]{*      ",
"      *=&&*   *&&=*      ",
"      *=&&*   *&&=*      ",
"       ***     ***       "};
