/* XPM */
static char * player_xpm[] = {
"31 50 26 1",
" 	c None",
".	c #330F1E",
"+	c #AD3E50",
"@	c #E1534A",
"#	c #6C3B4F",
"$	c #000000",
"%	c #57546F",
"&	c #D17F6B",
"*	c #F2F2F0",
"=	c #EB9F7F",
"-	c #23213D",
";	c #945848",
">	c #4884D4",
",	c #425BBD",
"'	c #F1C28F",
")	c #2F2339",
"!	c #D89C68",
"~	c #A2695D",
"{	c #61414E",
"]	c #50576B",
"^	c #2E3740",
"/	c #BCB7C5",
"(	c #8D87A2",
"_	c #101E29",
":	c #76747D",
"<	c #B9B5C3",
"                .....          ",
"              ..+++++..        ",
"            ..+@@@@@@++..      ",
"           .+@@@@@@@@@@++.     ",
"          .+@@@@@@@@+#++#.     ",
"         .+@@@@@@@@@+#...      ",
"         .+@@@@@@@@@@+.        ",
"        .+@@@@@@@@@@@+.        ",
"       ..#+@@@@@@@@@+#..       ",
"     .....++@@@@@@@++.....     ",
"   ..++#....++++++#....#++..   ",
"  .+@@++#.............#++@@+.  ",
" .+@@++++###.......####+++@@+. ",
" .+@@+@++++#########++++@+@@+. ",
" .+@@@@@@@@@+@+@+@+@+@+@@@@@+. ",
"  .+@@@@@@@@@@@@@@@@@@@@@@@+.  ",
"   .++@@@@@@@@@@@@@@@@@@@++.   ",
"    ..#++@@@@@@@@@@@@@++#..    ",
"    $%....#+++++++++#....%%    ",
"   $&%*%==...........==%*%-$   ",
"   $&;%%===============%%;&$   ",
"   $&;%%&;;;;=====;;;;&%%;&$   ",
"   $&;;-&*>>*&&&&&*>>*&-;;&$   ",
"    $&$-&*,,*&&&&&*,,*&-$&$    ",
"     $$-===&&&&&&&&&===-$$     ",
"       -&======;======&-       ",
"       $&'==========='&$       ",
"        $&&==&;;;&==&&$        ",
"    )))))$$&'====='&$$)))))    ",
"    )!!!!!!)$&&&&&$$!!!!!!)    ",
"    )~~~~~~)+$$$$$+)~~~~~~)    ",
"     ){{{{{)+#]^]#+){{{{{)     ",
"      )))))#@#/^/#@#)))))      ",
"        $/(#@#(^(#@#(/$        ",
"       $/(]#@#]^]#@#](/$       ",
"       $/(#+@#^^^#@+#(/$       ",
"      $/((#@@#](]#@@#((/$      ",
"      $$$]#@@#^^^#@@#]$$$      ",
"     $&==#+@@#](]#@@+$==&$     ",
"     $=='#@@@#^^^#@@@#'==$     ",
"     $==$#@@+#___#+@@#$==$     ",
"      $$$#++#+@@@+#++#$$$      ",
"       -$####@+@+@####$-       ",
"       -$:<<#+@@@+#<<:$-       ",
"       -:<<<#@+@+@#<<<:-       ",
"       -::<:<#@+@#<:<::-       ",
"        -:::::#@#:::::-        ",
"         $:**$:#:$**:$         ",
"         $<*<$   $<*<$         ",
"          $$$     $$$          "};
