/* XPM */
static char *_b059c561f6e4da1ea195e219a6ff1c5vUI2QJcJNHDx7R7d[] = {
/* columns rows colors chars-per-pixel */
"37 60 31 1 ",
"  c None",
". c black",
"X c #330F1E",
"o c #502814",
"O c #332041",
"+ c #2E3740",
"@ c #243F72",
"# c #6C3B4F",
"$ c #50576B",
"% c #80472B",
"& c #AD3E50",
"* c #945848",
"= c #B8614E",
"- c #E1534A",
"; c #D17F6B",
": c #F29546",
"> c #EB9F7F",
", c #64468D",
"< c #425BBD",
"1 c #007DC7",
"2 c #AE57A4",
"3 c #EA71BD",
"4 c #4884D4",
"5 c #42CAFD",
"6 c gray61",
"7 c #8D87A2",
"8 c gray74",
"9 c #F1C28F",
"0 c #B9B5C3",
"q c #BCB7C5",
"w c #F2F2F0",
/* pixels */
"            XXXXXXXXXXXXX            ",
"           X&-----------&X           ",
"          X&-------------&X          ",
"          X&-------------&X          ",
"          XX&-----------&XX          ",
"          X&X&&&&&&&&&&&X&X          ",
"          X&&XXXXXXXXXXX&&X          ",
"          X-&&&&&&&&&&&&&-X          ",
"        XXX---&&---&----&-XXX        ",
"        XXX---&&---&----&-XXX        ",
"      XXXXXX&&&&-----&&&&XXXXXX      ",
"    XX&&##XXXX##&&&&&##XXXX##&&XX    ",
"  XX&--&&&#XXXXXXXXXXXXXXX#&&&--&XX  ",
" X&&--&&&&&###XXXXXXXXX####&&&&--&&X ",
" X&&--&-&&&&&###########&&&&&-&--&&X ",
" X&&--&-&&&&&###########&&&&&-&--&&X ",
" X&&----------&&-&-&-&&-&-&------&&X ",
"  XX&---------------------------&XX  ",
"    X&&-----------------------&&X    ",
"     XX#&&&---------------&&&#XX     ",
"     .OXXXXX#&&&&&&&&&&&#XXXXXO.     ",
"     .OXXXXX#&&&&&&&&&&&#XXXXXO.     ",
"    .;O#==:OXXXXXXXXXXXXXO:==#O;.    ",
"    .;O#===OOOOO>>>>>OOOOO===#O;.    ",
"    .;OO===*ww**>>>>>**ww*===OO;.    ",
"    .;OO##=*w444>;;;>444w*=##OO;.    ",
"     .;OOO=*w<<<;;;;;<<<w*=OOO;.     ",
"     .;OOO=*w<<<;;;;;<<<w*=OOO;.     ",
"      .OOO=;****;;;;;****;=OOO.      ",
"        OOO>>>>>>>*>>>>>>>OOO        ",
"        OOO9>>>>>>>>>>>>>9OOO        ",
"          O;;>>>;***;>>>;;O          ",
"           ..;99>>>>>99;..           ",
"           ..;99>>>>>99;..           ",
"             ...;;;;;...             ",
"            .,22.....22,.            ",
"           .q,22,$+$,22,q.           ",
"          .q7,33,q+q,33,7q.          ",
"          .q7,33,7+7,33,7q.          ",
"          .q7,33,7+7,33,7q.          ",
"        ..q7$,33,$+$,33,$7q..        ",
"        ..q7,233,+++,332,7q..        ",
"       .qq77,333,$7$,333,77qq.       ",
"       ....$,333,+++,333,$....       ",
"      .&&&&.2333,$7$,3332.&&&&.      ",
"      .&&&&.2333,$7$,3332.&&&&.      ",
"      .-&&#.3333,+++,3333.#&&-.      ",
"      .-&&.,3322,888,2233,.&&-.      ",
"       ....,22,,8%%%6,,22,....       ",
"          .,,,ooo666ooo,,,.          ",
"          ..@5551@@@1555@..          ",
"          ..@5551@@@1555@..          ",
"           .@5555...5555@.           ",
"           .@5551. .1555@.           ",
"           .@111.   .111@.           ",
"           .wwww.   .wwww.           ",
"           .0w00.   .00w0.           ",
"           .0w00.   .00w0.           ",
"            ....     ....            ",
"                                     "
};
