/* XPM */
static char * three_xpm[] = {
"60 60 11 1",
" 	c #187454",
".	c #197E52",
"+	c #24875C",
"@	c #185D3C",
"#	c #2D9C45",
"$	c #154E43",
"%	c #1E7B47",
"&	c #1A5F5A",
"*	c #4B3037",
"=	c #544538",
"-	c #66533F",
"  . ..+.  .   ++     .+.  .   ++     .+.  .   ++     .+.  . ",
"  .  ....    ..  ........    ..  ........    ..  ........   ",
"  ....  +.   .      ..  +.   .      ..  +.   .      ..  +.  ",
"    ..  +.  .        .  +.  .        .  +.  .        .  +.  ",
"  ..... ... .  . . .. . ... .  . . .. . ... .  . . .. . ... ",
"..........+  .+... .......+  .+... .......+  .+... .......+ ",
"     ....  .  +      ....  . @+      ....  .  +      ....  .",
".  . .. ..    . .  . .. ..   #@ .  . .. ..    . .  . .. ..  ",
". ..  .  ...  ... ..  .  ...@#@$@ ..  .  ...  ... ..  .  ...",
"  +   +  +.+.  .  +   +  +.@##@$$@+   +  +.+.  .  +   +  +.+",
"  + . .. +  .     + . .. @@###%@@$$ . .. +  .     + . .. +  ",
". + ..  ... . ++. + ..  .@####%@@@$$..  ... . ++. + ..  ... ",
"  .+.   .     +.  .+.   @#####%%@@@$.   .     +.  .+.   .   ",
"  ..      +  .+   ..   @#########@%$$     +  .+   ..      + ",
". .       +  .. . .   %########%%%@@$     +  .. . .       + ",
" . . .+.  .  . + . . %###%###%%%%@@@@$+.  .  . + . . .+.  . ",
"     .+.  .   ++    @###%%%####%%%%%@$$.  .   ++     .+.  . ",
" ........    ..  .@@#@#%%%%%%#%%%%@@@@$$.    ..  ........   ",
"    ..  +.   .   @@@@##%%%%%####%@%%%@@$$.   .      ..  +.  ",
"     .  +.  .      @##%$$$@%%#%%@@@@@@$$$$$ .        .  +.  ",
" . .. . ... .  . @@###%%@@######%%@@%%@$$@@$.  . . .. . ... ",
".. .......+  .+.@%##%%%%@@@%%##@@@@@@@@$$@$$$$+... .......+ ",
"     ....  .  +@##%%%@@%%$@@###%@@@@%@@@$$$$$ +      ....  .",
".  . .. ..   @@%%%%@@@@%@$$$@#$$@@$$@@@@$$$   . .  . .. ..  ",
". ..  .  ...  @@%@@@%%@@@$$$$$$$$%%$$$@$$$@$$ ... ..  .  ...",
"  +   +  +.+.  .@@@%%%%@@@@@@@@@$$$@@@$$$@%@$  .  +   +  +.+",
"  + . .. +  .  @@%%#%%@@#@@%%%%%%%$@%%$$$@%@$$$   + . .. +  ",
". + ..  ... . @@#%##%@%%#@@@@%#%@@$$@%%$@@$@@@$$. + ..  ... ",
"  .+.   .     @%###%@@###%@@####%$$$%%%%$$$$$$@$$ .+.   .   ",
"  ..      +  @%###%@@###@@@@@###@@$$@%@$$$$$$$$$$$..      + ",
". .       + @%##%#@@###%@@$$%%#@$$$$%%%%$$@@$$$$$ .       + ",
" . . .+.  .@%#%#%#@%###@@@$@$##%@@$$@%$$$@@@@$ + . . .+.  . ",
"     .+.  @%##%%@@@##%#@@%@$%%#%@$$$$$$$@@@@@$$+     .+.  . ",
" .......@##%$%@@@@%#%%@@%%@@$@%@@@$$$$$@@@%%%@$  ........   ",
"    ..  +$@@@$@%#@@#%@#%#%@@$$%$$$$$$$$$$$$@@%$     ..  +.  ",
"     .  +.  .@%##%@@%@####%@$$$$$$$@@@%$$$@@%%$$$    .  +.  ",
" . .. . ... $$#%#@@@@##%%#@@@%%%%@@@%%%$@$$@$@@@$$ .. . ... ",
".. .......+$@##@%@@@%%@@%%@@%%#%%%%@%%%@@$$$$$$$@$$.......+ ",
"     ....  $##%@@@@%@@%@@%%%####%%%@@@%%@$$$$ $$$    ....  .",
".  . .. ..$@%@%@@@@#@#%@@@%%%%#%@@@@@%%%@@$$$ . .  . .. ..  ",
". ..  .  $$%%@@@$@@%###%@@@@@###@@@@$$@@%@$$$$... ..  .  ...",
"  +   + $$@@%@@$$$###%@@@@@@%%#%@@@$$$%%@@$$$$$.  +   +  +.+",
"  + . .. + $$$$   $%##%@$$$@@@%%@$$$$$$$@@$$$$$$$ + . .. +  ",
". + ..  ...$$ ++.$#%%@@$$$$$@%%%@$$$$$$$$$$$$$$$. + ..  ... ",
"  .+.   .     +.$@%@@$$$$$$$$@%@@$$$$$$$$$$$$ +.  .+.   .   ",
"  ..      +  .+$$@@$$$$$$$$&&$@@$*&$$$$&&$$$ .+   ..      + ",
". .       +  .. .$$$$&&&&$&&&=$@**&&&$&&&&&& .. . .       + ",
" . . .+.  .  . + . &&&& &&&&==*****&&&& &&&&&& + . . .+.  . ",
"     .+.  .   ++   &&&& &&&===******&&& &&  &&++     .+.  . ",
" ........    ..  .& &&&&&&===**-*****&& &&& &&.  ........   ",
"    ..  +.   .    & && &&&&&&*--**&&&&&  &&&&&      ..  +.  ",
"     .  +.  .     & && &&&&&&==-**&&&& && &&&        .  +.  ",
" . .. . ... .  . . .&&&& && &&==*&&& & && & .  . . .. . ... ",
".. .......+  .+... ...&&&&& &&&=&&&& &&&&.+  .+... .......+ ",
"     ....  .  +      ....  .  +      ....  .  +      ....  .",
".  . .. ..    . .  . .. ..    . .  . .. ..    . .  . .. ..  ",
". ..  .  ...  ... ..  .  ...  ... ..  .  ...  ... ..  .  ...",
"  +   +  +.+.  .  +   +  +.+.  .  +   +  +.+.  .  +   +  +.+",
"  + . .. +  .     + . .. +  .     + . .. +  .     + . .. +  ",
". + ..  ... . ++. + ..  ... . ++. + ..  ... . ++. + ..  ... "};
